<svg id="Layer_1" data-name="Layer 1" xmlns="http://www.w3.org/2000/svg" viewBox="0 0 105.6 105.56" fill="#691981">
  <path
    d="M51,106.08c-2.44-1.11-3.85-3.4-5.79-5.09-.18-.15-.54-.32-.26-.66s.51-.11.83,0c1.48.29,2.21,1.53,3.22,2.4s1.58,1.83,2.58,2.52c.58.39-.14.58-.1.88Z"
    transform="translate(-0.24 -0.52)" />
  <path
    d="M.24,55.08c.41-.4.72-.55,1.22,0,1.26,1.37,2.67,2.62,3.89,4a5.32,5.32,0,0,1,.8,2c.11.39-.26.54-.51.29C4,59.73,2.28,58,.62,56.31c-.2-.2.11-.68-.38-.76Z"
    transform="translate(-0.24 -0.52)" />
  <path
    d="M53.64,106.08c-2.12-1.19-3.48-3.21-5.26-4.78-.15-.14-.33-.31-.21-.5s.49-.17.75-.15c1.38.12,2.1,1.21,3,2s1.6,1.69,2.48,2.44c.51.42,0,.64,0,1Z"
    transform="translate(-0.24 -0.52)" />
  <path
    d="M.24,52.2c.34,0,.5-.8.94-.23,1.36,1.77,3.59,2.82,4.32,5.14.12.38.41.79,0,1s-.58-.3-.82-.53c-1-.94-1.86-2-2.87-2.84A7,7,0,0,1,.24,52.44Z"
    transform="translate(-0.24 -0.52)" />
  <path
    d="M.24,49.33c.5-.31.9-.41,1.38.16.75.89,1.62,1.68,2.45,2.49a4.57,4.57,0,0,1,1.38,2.41c0,.21.1.52-.2.61a.49.49,0,0,1-.42-.14c-1.34-1.35-2.67-2.72-4-4.08-.33-.35-.05-1-.57-1.21Z"
    transform="translate(-0.24 -0.52)" />
  <path
    d="M57.79,37.3c-.23.43,0,.5.37.62,1.7.54,2.7,2,3.91,3.13s2.49,2.46,3.72,3.7c1.68,1.7,3.32,3.43,5,5.1,1.12,1.09,2.18,2.24,3.29,3.33,1.82,1.77,3.62,3.55,5.37,5.38,1.59,1.67,3.34,3.18,4.93,4.84,1.21,1.27,2.57,2.4,3.69,3.77a15.45,15.45,0,0,0,2.13,2,1.38,1.38,0,0,1,.47,1.28c0,.61-.38.76-.87.42a4.78,4.78,0,0,1-.69-.66L35.57,16.64c-.26-.26-.92-.5-.42-1a.91.91,0,0,1,1.34,0c1.57,1.25,2.86,2.79,4.3,4.17,1.69,1.61,3.36,3.24,5,4.93s3.34,3.4,5,5.1S54,33,55.61,34.58c.66.61,1.09,1.45,1.91,1.9A.59.59,0,0,1,57.79,37.3Z"
    transform="translate(-0.24 -0.52)" />
  <path
    d="M12.13,54.52a4,4,0,0,1,.64.4c2.13,2.18,4.17,4.45,6.39,6.53C20.81,63,22.4,64.62,24,66.23c1.25,1.28,2.53,2.56,3.8,3.82,1.63,1.62,3.28,3.23,4.9,4.87,1.26,1.27,2.54,2.55,3.79,3.84,1.52,1.56,3.1,3.08,4.64,4.63q2,2,4,4c1.58,1.56,3.09,3.21,4.77,4.67.57.49.8,1.28,1.57,1.57.11,0,.29.21.1.36s-.45.32-.6.26a4.66,4.66,0,0,1-2-.93c-5.64-5.71-11.32-11.36-17-17q-9.55-9.56-19.15-19.11a4.36,4.36,0,0,1-1-1.92C11.73,55,11.69,54.59,12.13,54.52Z"
    transform="translate(-0.24 -0.52)" />
  <path
    d="M11.82,52.37c0-.25-.17-.66.13-.72s.59.19.8.39c1.65,1.62,3.27,3.27,4.9,4.9s3.51,3.45,5.21,5.22c2.69,2.79,5.62,5.35,7.88,8.54a28.88,28.88,0,0,0,7.34,7.12,46.71,46.71,0,0,1,5.52,5.09c1.69,1.61,3.31,3.3,5,5l5.71,5.72c.46.45.09.64-.28.69a2.26,2.26,0,0,1-2-.84q-4.14-4.16-8.29-8.29l-31-31C12.2,53.62,11.61,53.2,11.82,52.37Z"
    transform="translate(-0.24 -0.52)" />
  <path
    d="M48.57,93.67c-.29.14-.64.41-.74.34-.64-.46-1.46-.44-2.07-1.05Q29.59,76.72,13.37,60.54a6.37,6.37,0,0,1-1.23-2.12c-.13-.3-.2-.51.09-.72s.5.07.68.25c1.61,1.6,3.21,3.21,4.82,4.82l5,5,5.15,5.16c1.59,1.6,3.18,3.21,4.78,4.81,1.77,1.78,3.55,3.55,5.32,5.32,1.6,1.6,3.23,3.17,4.8,4.79,1.8,1.86,3.76,3.55,5.4,5.55A2.19,2.19,0,0,0,48.57,93.67Z"
    transform="translate(-0.24 -0.52)" />
  <path
    d="M60.62,12a5.55,5.55,0,0,1,2.67,1.52c1.52,1.73,3.21,3.3,4.84,4.92s3.28,3.23,4.9,4.86c2.18,2.18,4.37,4.35,6.51,6.57,1.54,1.59,3.16,3.13,4.72,4.7,1.32,1.33,2.64,2.67,4,4,1.55,1.53,3.07,3.11,4.65,4.61.17.17.37.29.45.53.24.77,1.15,1.6.58,2.24-.3.33-1.06-.77-1.56-1.27C88.22,40.58,84.11,36.45,80,32.34c-.36-.36-.8-.66-.7-1.29,0-.26-.09-.43-.4-.47-1-.15-1.61-.95-2.27-1.62q-8.09-8.07-16.16-16.15c-.19-.18-.53-.33-.44-.63C60.06,12.07,60.44,12.05,60.62,12Z"
    transform="translate(-0.24 -0.52)" />
  <path
    d="M13,60.89c.32.75,1.05,1,1.54,1.5,2.34,2.35,4.74,4.64,7,7,2.09,2.22,4.26,4.35,6.42,6.5,2.62,2.61,5.27,5.21,7.89,7.83C38,85.92,40.17,88,42.23,90.26a16.41,16.41,0,0,0,2.3,2.18c.25.18.57.43.33.77s-.48.15-.77,0a6.57,6.57,0,0,1-2.3-1.39Q27.9,77.92,14,64a11,11,0,0,1-1.24-2.11C12.46,61.51,12.88,61.26,13,60.89Z"
    transform="translate(-0.24 -0.52)" />
  <path
    d="M91.63,68.2c.1.38-.14.57-.41.76s-.49-.07-.69-.23-.23-.22-.34-.33L61,39.21c-.22-.22-.69-.38-.5-.81.28-.63.69,0,1,0,1.67.28,2.47,1.75,3.56,2.78,2.24,2.11,4.38,4.34,6.55,6.52s4.36,4.39,6.55,6.58c1.59,1.6,3.2,3.19,4.8,4.79s3.47,3.4,5.15,5.16a37.88,37.88,0,0,1,3.18,3.28C91.47,67.74,91.66,67.9,91.63,68.2Z"
    transform="translate(-0.24 -0.52)" />
  <path
    d="M63.93,12.73A8.73,8.73,0,0,1,68,15.31c2.13,2.17,4.3,4.31,6.45,6.46s4.41,4.45,6.63,6.67c1.59,1.6,3.2,3.18,4.8,4.78,1.75,1.74,3.46,3.53,5.24,5.23a7.59,7.59,0,0,1,2.05,3.1c.11.3.33.68.11.86s-.51-.19-.7-.37l-28.5-28.5c-.18-.19-.48-.33-.46-.64C63.61,12.82,63.85,12.77,63.93,12.73Z"
    transform="translate(-0.24 -0.52)" />
  <path
    d="M4.3,72.35l.57.54q3.18,3.18,6.35,6.37l6.63,6.67,4.71,4.7L27.89,96c1.71,1.71,3.44,3.4,5.15,5.11.29.29.72.52.68,1-.39-.14-.78-.24-1.16-.41a11.07,11.07,0,0,1-3.39-2.34Q17.92,88,6.58,76.77C5.5,75.7,5.14,74.24,4.16,73.14,4,73,4.09,72.62,4.3,72.35Z"
    transform="translate(-0.24 -0.52)" />
  <path
    d="M72.76,4.33c1.23.83,2.72,1.19,3.81,2.31,2.17,2.24,4.41,4.42,6.61,6.63s4.34,4.41,6.53,6.6S94,24,96,26.14s4.28,3.93,5.65,6.56a2.53,2.53,0,0,1,.28.63,2,2,0,0,1-.12.55,1.53,1.53,0,0,1-.4-.22c-.35-.32-.67-.68-1-1L73,5.24c-.22-.22-.53-.38-.57-.72C72.44,4.48,72.62,4.41,72.76,4.33Z"
    transform="translate(-0.24 -0.52)" />
  <path
    d="M92.34,66.14A.7.7,0,0,1,92,67c-.41.22-.56-.17-.77-.37L64.13,39.45c-.21-.21-.66-.44-.45-.73s.61-.14,1,0a5,5,0,0,1,2.1,1.36c1.4,1.64,2.95,3.15,4.45,4.71.92,1,2.09,1.73,3,2.7,1.69,1.74,3.43,3.44,5.14,5.15l3.45,3.47c1.72,1.72,3.44,3.42,5.16,5.13,1.18,1.18,2.36,2.37,3.55,3.54C92,65.17,92.47,65.46,92.34,66.14Z"
    transform="translate(-0.24 -0.52)" />
  <path
    d="M34.12,16.28a.64.64,0,0,1,.62.27q3,3.09,6.11,6.17c1.59,1.6,3.21,3.18,4.81,4.78s3.45,3.43,5.16,5.16S54,35.87,55.6,37.47l5.33,5.32c.66.66,1.33,1.3,2,2,.14.14.26.29.39.44-.19,0-.41.07-.56,0a14.11,14.11,0,0,1-3.55-2,49.69,49.69,0,0,1-4.75-5.72,4.67,4.67,0,0,0-1.54-1.37,12.55,12.55,0,0,1-3.52-2.78L33.65,17.6c-.25-.26-.73-.44-.48-1S33.82,16.43,34.12,16.28Z"
    transform="translate(-0.24 -0.52)" />
  <path
    d="M40.63,92.41a8.8,8.8,0,0,1-2.86-1.74Q26.46,79.39,15.17,68.09c-.71-.72-.91-1.74-1.56-2.49-.19-.23.08-.53.23-.71s.34.06.47.19L19.2,70c1.59,1.6,3.18,3.22,4.78,4.81s3.46,3.42,5.18,5.13c2.18,2.18,4.39,4.33,6.53,6.55,1.73,1.81,3.65,3.44,5.23,5.4.11.13.47.12.33.37S40.89,92.35,40.63,92.41Z"
    transform="translate(-0.24 -0.52)" />
  <path
    d="M89.71,72.1c.06.34.05.58-.34.76s-.51-.06-.7-.23-.62-.63-.92-.94c-6.09-6.08-12.16-12.18-18.28-18.24-1.19-1.18-1.74-2.82-3-3.93a.24.24,0,0,1-.07-.21c.23-.64-.55-.94-.5-1.51.55.19.72.76,1.1,1.12,2.38,2.27,4.68,4.61,7,7C76,58,78.2,60,80.3,62.12s4.35,4.4,6.53,6.59c.68.69,1.4,1.34,2.09,2C89.3,71.12,89.84,71.42,89.71,72.1Z"
    transform="translate(-0.24 -0.52)" />
  <path
    d="M68.47,14.2a9.5,9.5,0,0,1,3.25,2c1.64,1.68,3.31,3.32,5,5s3.15,3.14,4.72,4.71c1.32,1.33,2.65,2.66,4,4,1.5,1.53,3,3,4.55,4.56.86.86,1.15,2,1.92,2.92a.53.53,0,0,1,0,.75c-.21.14-.39-.19-.55-.35l-6.34-6.35L68.11,14.73c-.16-.16-.3-.35-.46-.53Z"
    transform="translate(-0.24 -0.52)" />
  <path
    d="M37.7,14.44a1.33,1.33,0,0,1,1.14.45c2.59,2.67,5.18,5.33,7.81,8C48.75,25,50.9,27,53,29.08s4,4,6,6a.78.78,0,0,1,0,1.24c-.36.36-.72.17-1.08-.19Q47.62,25.8,37.33,15.53c-.22-.22-.55-.39-.35-.79A.58.58,0,0,1,37.7,14.44Z"
    transform="translate(-0.24 -0.52)" />
  <path
    d="M94,59.33c0,.37.07.74-.28.88s-.47-.22-.65-.41Q83.23,50,73.37,40.11a1.89,1.89,0,0,1-.53-1.39.71.71,0,0,1,.41-.66c.25-.13.4.17.56.34,2.68,2.67,5.37,5.33,8,8s5.26,5.36,7.91,8c1.12,1.13,2.3,2.22,3.45,3.33C93.66,58.22,94.21,58.61,94,59.33Z"
    transform="translate(-0.24 -0.52)" />
  <path
    d="M39.72,13.76c1.09-.16,1.45.63,1.88,1.08,2.06,2.24,4.29,4.31,6.41,6.48,1.6,1.64,3.29,3.23,4.91,4.85,2.17,2.18,4.46,4.25,6.47,6.59a6.62,6.62,0,0,0,1,.82c.45.35.6.75.14,1.19s-.77.35-1.2-.09c-1.86-1.91-3.76-3.78-5.65-5.67q-7.09-7.1-14.19-14.21c-.23-.23-.69-.4-.52-.83S39.6,13.79,39.72,13.76Z"
    transform="translate(-0.24 -0.52)" />
  <path
    d="M93.55,61.71c0,.37.07.74-.28.89s-.47-.21-.65-.39L73.1,42.68c-.26-.26-.52-.5-.46-.91s-.24-1,.27-1.17.54.47.82.7c1.2,1,2.2,2.2,3.31,3.3,1.69,1.69,3.41,3.33,5.1,5s3.43,3.39,5.09,5.13c1.24,1.3,2.6,2.48,3.78,3.85A24.43,24.43,0,0,0,93,60.43,1.37,1.37,0,0,1,93.55,61.71Z"
    transform="translate(-0.24 -0.52)" />
  <path
    d="M93.09,64.13a.57.57,0,0,1-.33.68c-.47.24-.62-.23-.85-.45l-14-14c-1.61-1.61-3.2-3.23-4.84-4.81a3.64,3.64,0,0,1-.88-1.5c-.11-.34-.17-.6.18-.81s.59,0,.81.25c2.15,2.18,4.28,4.36,6.44,6.52s4.19,4.09,6.23,6.19c2.26,2.34,4.68,4.52,6.84,7A1.4,1.4,0,0,1,93.09,64.13Z"
    transform="translate(-0.24 -0.52)" />
  <path
    d="M94.51,57a.68.68,0,0,1-.33.77c-.35.14-.53-.27-.74-.48q-6-6-12-12L74.14,38a4.23,4.23,0,0,1-.65-.69.62.62,0,0,1,.11-1c.31-.2.64-.42,1,0,1.55,1.6,3.13,3.17,4.7,4.75L83,44.7c1.69,1.69,3.37,3.39,5.05,5.08,1.19,1.18,2.41,2.32,3.55,3.54,1,1,2.29,1.83,2.75,3.31A1.6,1.6,0,0,0,94.51,57Z"
    transform="translate(-0.24 -0.52)" />
  <path
    d="M42.09,13a1.16,1.16,0,0,1,1.12.5c3.48,3.7,7.16,7.21,10.72,10.83,2.57,2.61,5.14,5.24,7.84,7.74.36.34.91.71.37,1.25s-1,.28-1.49-.22Q52.9,25.32,45.1,17.56l-3.46-3.47c-.21-.22-.64-.41-.49-.74A.78.78,0,0,1,42.09,13Z"
    transform="translate(-0.24 -0.52)" />
  <path
    d="M94.83,54.52a4.12,4.12,0,0,1-.37.54c-.21.21-.36,0-.49-.13s-.34-.34-.51-.51L75.37,36.33a5.4,5.4,0,0,0-.42-.41c-.47-.41,0-.8.14-1a.61.61,0,0,1,1,0c2.58,2.63,5.19,5.22,7.78,7.82,2.09,2.1,4.2,4.18,6.27,6.3,1.34,1.38,2.74,2.69,4,4.1C94.63,53.59,94.18,54.25,94.83,54.52Z"
    transform="translate(-0.24 -0.52)" />
  <path
    d="M43.7,12.28a4,4,0,0,1,2,.93c1.69,1.68,3.26,3.48,5,5.1s3.22,3.18,4.82,4.78L59.43,27a45.6,45.6,0,0,0,3.51,3.44c.33.26.71.52.68,1,0,.29,0,.6-.27.73a.67.67,0,0,1-.87-.13,2.73,2.73,0,0,0-.34-.34L43.88,13.46c-.22-.22-.67-.39-.46-.85C43.5,12.44,43.63,12.27,43.7,12.28Z"
    transform="translate(-0.24 -0.52)" />
  <path
    d="M28.63,99.58c-.2.44-.41,0-.53,0a17,17,0,0,1-4.84-3.3q-6.59-6.44-13-13a14.19,14.19,0,0,1-3.48-5.07c0-.13-.28-.25-.07-.37s.29.08.39.18c1.63,1.62,3.25,3.27,4.88,4.9s3.46,3.36,5.1,5.12,3.33,3.41,5,5.1,3.13,3.27,4.85,4.74c.56.49.81,1.28,1.56,1.57C28.54,99.41,28.58,99.51,28.63,99.58Z"
    transform="translate(-0.24 -0.52)" />
  <path
    d="M36.58,90.49c-.09.34-.26,0-.35,0a9.93,9.93,0,0,1-3.88-2.36q-7.28-7.19-14.46-14.45a12.66,12.66,0,0,1-2.38-3.74c-.1-.2-.19-.43,0-.54s.39.14.54.29c1.79,1.79,3.63,3.53,5.35,5.38,2.1,2.25,4.34,4.37,6.49,6.58,1.57,1.62,3.17,3.23,4.83,4.76,1.18,1.08,2.29,2.24,3.42,3.38A4.08,4.08,0,0,1,36.58,90.49Z"
    transform="translate(-0.24 -0.52)" />
  <path
    d="M78,6.87a15.67,15.67,0,0,1,1.56.87,41.11,41.11,0,0,1,5.77,4.95c1.55,1.63,3.24,3.16,4.81,4.78,3.19,3.26,6.78,6.17,9,10.26.17.3.33.79.25.83-.36.15-.51-.25-.71-.45L78.21,7.57a3.07,3.07,0,0,1-.5-.64C77.67,6.85,77.84,6.78,78,6.87Z"
    transform="translate(-0.24 -0.52)" />
  <path
    d="M88.81,73.72c-.15.45-.19.84-.51,1s-.55-.19-.74-.38Q79,65.85,70.48,57.3A6.68,6.68,0,0,1,69,54.38a.38.38,0,0,1,.07-.33c.17-.14.28,0,.38.14,1.32,1.58,2.87,3,4.31,4.41,1.59,1.6,3.21,3.19,4.81,4.78,1.28,1.26,2.51,2.58,3.79,3.82,1.66,1.6,3.2,3.31,4.92,4.84A19.09,19.09,0,0,1,88.81,73.72Z"
    transform="translate(-0.24 -0.52)" />
  <path
    d="M57.28,11.52a6.2,6.2,0,0,1,2.34,1.25c2.51,2.67,5.22,5.16,7.82,7.76,2.19,2.18,4.33,4.42,6.5,6.62.74.75,1.55,1.43,2.3,2.18.21.21.71.39.36.85s-.53,0-.82,0a3.66,3.66,0,0,1-2-1.17q-8.28-8.31-16.58-16.6c-.21-.21-.56-.37-.53-.72C56.67,11.61,57.07,11.57,57.28,11.52Z"
    transform="translate(-0.24 -0.52)" />
  <path
    d="M54.16,11.28a3.36,3.36,0,0,1,2.17,1,34.78,34.78,0,0,0,3.32,3.44c1.84,1.85,3.66,3.73,5.54,5.54C66.81,22.85,68.36,24.49,70,26c1.11,1,2.17,2.13,3.25,3.2.15.14.33.32.19.49a.57.57,0,0,1-.53.14,4.61,4.61,0,0,1-2.2-1c-1.42-1.54-2.88-3-4.36-4.51-3.95-3.93-7.92-7.84-11.87-11.75-.23-.22-.46-.45-.68-.68s-.37-.29-.22-.48S54,11.33,54.16,11.28Z"
    transform="translate(-0.24 -0.52)" />
  <path
    d="M77.42,33.05c.6.71,1.16,1.46,1.81,2.12,1.67,1.74,3.39,3.43,5.07,5.16,1.28,1.32,2.56,2.64,3.87,3.91C89.79,45.82,91.34,47.47,93,49a4.19,4.19,0,0,1,1.55,2.3c.06.32.46.63,0,.91s-.67-.24-.9-.47q-6.53-6.5-13-13l-4-4.06c-.23-.23-.51-.46-.28-.82a.92.92,0,0,1,.86-.53Z"
    transform="translate(-0.24 -0.52)" />
  <path
    d="M64.12,29.51c0,.28,0,.57-.26.74s-.48-.17-.65-.34q-8.55-8.52-17.08-17.06c-.18-.18-.48-.34-.33-.69s.53-.09.79-.11a1.73,1.73,0,0,1,1.51.69c2.08,2.17,4.28,4.22,6.4,6.34s4.33,4.42,6.5,6.61c.66.66,1.36,1.28,2,1.93A2.48,2.48,0,0,1,64.12,29.51Z"
    transform="translate(-0.24 -0.52)" />
  <path
    d="M49.44,35.26a3.67,3.67,0,0,1-1.86-.85q-7.9-7.93-15.82-15.84c-.29-.28-.79-.55-.23-1a.92.92,0,0,1,1.37.07c1.12,1.09,2.21,2.21,3.32,3.32s2.49,2.47,3.71,3.71c1.68,1.7,3.34,3.42,5,5.11,1.15,1.16,2.33,2.29,3.5,3.44L50,34.74a.72.72,0,0,1,.11.3Z"
    transform="translate(-0.24 -0.52)" />
  <path
    d="M70.27,57.84l.33.31c2.57,2.63,5.06,5.34,7.72,7.86,3,2.88,5.89,5.93,8.92,8.8a.9.9,0,0,1,.06,1.43c-.49.58-.75,0-1-.27Q78.54,68.24,70.79,60.5a3.17,3.17,0,0,1-.8-2.25C70,58.08,69.92,57.83,70.27,57.84Z"
    transform="translate(-0.24 -0.52)" />
  <path
    d="M30.52,18.32a7,7,0,0,1,.9.67L38,25.58l4.61,4.66c1.43,1.44,2.86,2.88,4.32,4.3.18.18.4.27.19.54a.66.66,0,0,1-.6.32A2.38,2.38,0,0,1,45,34.71L30,19.64c-.22-.22-.52-.42-.38-.8S30.19,18.53,30.52,18.32Z"
    transform="translate(-0.24 -0.52)" />
  <path
    d="M94.55,48.85c0,.1,0,.29-.15.37s-.36.06-.51-.11-.28-.28-.42-.42L78.41,33.62c-.4-.4-1.09-.8-.39-1.42s1.1,0,1.56.47c1.61,1.64,3.25,3.25,4.87,4.88l5.16,5.16c1.16,1.16,2.27,2.37,3.49,3.45A5,5,0,0,1,94.55,48.85Z"
    transform="translate(-0.24 -0.52)" />
  <path
    d="M70.25,61.79c-.19-.34-.17-.73.13-.82s.32.39.51.54a63.81,63.81,0,0,1,4.85,4.74c1.28,1.26,2.51,2.58,3.79,3.83,1.63,1.57,3.13,3.27,4.84,4.75a17.56,17.56,0,0,0,1.83,1.83c.64.41.22.87-.1,1.27s-.68.06-.93-.19Q77.93,70.51,70.7,63.28A1.71,1.71,0,0,1,70.25,61.79Z"
    transform="translate(-0.24 -0.52)" />
  <path
    d="M43.93,35.86a1.28,1.28,0,0,1-1.13-.48q-7.21-7.25-14.45-14.47c-.29-.29-.81-.63-.29-1.06s.78-.54,1.37.08c2.34,2.46,4.74,4.86,7.16,7.22,2.62,2.56,5.1,5.27,7.84,7.7.2.17.45.36.23.71A.65.65,0,0,1,43.93,35.86Z"
    transform="translate(-0.24 -0.52)" />
  <path
    d="M27.94,66c-.05.12.23.3,0,.45,0,0-.25-.17-.35-.28Q20.05,58.6,12.47,51.05c-.42-.42-.32-.95-.62-1.36s.16-.52.31-.69.44,0,.61.16q1.68,1.73,3.37,3.43c1.2,1.21,2.42,2.41,3.63,3.62,1.66,1.65,3.3,3.33,5,5A14.21,14.21,0,0,1,27.68,65,1.73,1.73,0,0,1,27.94,66Z"
    transform="translate(-0.24 -0.52)" />
  <path
    d="M64.3,27c0,.24.21.59-.14.73s-.48-.19-.67-.38Q56.1,19.93,48.7,12.53c-.19-.2-.6-.35-.35-.77s.58-.22.87-.19c1.37.15,1.93,1.41,2.79,2.2,2.31,2.13,4.49,4.42,6.71,6.66,1.73,1.75,3.44,3.52,5.16,5.28A1.12,1.12,0,0,1,64.3,27Z"
    transform="translate(-0.24 -0.52)" />
  <path
    d="M41.5,36.55c-.44.08-.64-.26-.89-.5C36,31.47,31.44,26.87,26.84,22.3c-.41-.41-.75-.83-.21-1.28s.84-.24,1.3.24c2.08,2.16,4.25,4.23,6.37,6.36s4.38,4.46,6.58,6.68c.39.39.82.73,1.22,1.1a.75.75,0,0,1,.21.86C42.16,36.65,41.74,36.38,41.5,36.55Z"
    transform="translate(-0.24 -0.52)" />
  <path
    d="M85.22,79c0,.15-.29.37-.6.55s-.64-.17-.88-.4l-5.93-5.92-7.44-7.45c-.27-.28-.6-.51-.64-1a1.17,1.17,0,0,1,.39-1.06c.39-.27.58.25.81.48,1.6,1.59,3.17,3.21,4.77,4.81s3.46,3.42,5.19,5.13c1.24,1.24,2.48,2.47,3.72,3.72A1.31,1.31,0,0,1,85.22,79Z"
    transform="translate(-0.24 -0.52)" />
  <path
    d="M40.37,36.78c0,.3-.31.38-.48.44-.65.24-1.11-.1-1.56-.56C34,32.34,29.72,28,25.42,23.73c-.38-.38-1-.77-.33-1.33s.95-.14,1.44.37c2,2.12,4.24,4.11,6.27,6.25s4.47,4.24,6.45,6.61C39.59,36.05,40.29,36.11,40.37,36.78Z"
    transform="translate(-0.24 -0.52)" />
  <path
    d="M12.13,46.91c.08-.2.11-.48.26-.6.31-.25.5.1.68.28,2.58,2.62,5.13,5.26,7.72,7.87C22.36,56,24,57.58,25.57,59.12a6.8,6.8,0,0,1,1.19,2.52.51.51,0,0,1-.07.45c-.21.18-.36-.07-.48-.19-1.08-1.07-2.13-2.15-3.21-3.22-3.32-3.34-6.64-6.68-10-10A2.57,2.57,0,0,1,12.13,46.91Z"
    transform="translate(-0.24 -0.52)" />
  <path
    d="M56.55,94.11a2.37,2.37,0,0,1-1.7-.69q-6.62-6.67-13.28-13.3c-.19-.2-.65-.37-.43-.71s.49.07.74.13c1.95.48,3.17,2,4.5,3.27,2.2,2.16,4.37,4.35,6.54,6.53L57,93.49c.12.12.23.25.13.4A.62.62,0,0,1,56.55,94.11Z"
    transform="translate(-0.24 -0.52)" />
  <path
    d="M38.37,37.63c0,.43-.84.84-1.32.58a2.41,2.41,0,0,1-.52-.49Q30.28,31.46,24,25.21c-.43-.43-1-.89-.34-1.45s1,0,1.42.47c2.08,2.11,4.22,4.17,6.33,6.25s4.22,4.21,6.32,6.32A7.54,7.54,0,0,1,38.37,37.63Z"
    transform="translate(-0.24 -0.52)" />
  <path
    d="M69.92,66.17a2.39,2.39,0,0,1,.39.31c2,2.29,4.28,4.33,6.39,6.52,1.53,1.6,3.12,3.17,4.74,4.69.71.67,1.38,1.39,2.12,2,.51.44.33.85,0,1.2s-.75.24-1.11-.12c-4.31-4.32-8.61-8.64-12.95-12.94-.44-.43-.24-.87-.21-1.32C69.31,66.3,69.56,66.17,69.92,66.17Z"
    transform="translate(-0.24 -0.52)" />
  <path
    d="M53.13,67.92a1.27,1.27,0,0,1-1.28-.5Q45.64,61.18,39.42,55c-.22-.22-.61-.43-.52-.75s-.1-.73.24-.94a.74.74,0,0,1,1,.21c1.19,1.2,2.35,2.42,3.56,3.6,1.69,1.63,3.13,3.49,5,5a63.94,63.94,0,0,1,4.75,4.71c.22.22.5.51.33.92S53.35,68,53.13,67.92Z"
    transform="translate(-0.24 -0.52)" />
  <path
    d="M36.52,38.75c-.12.42-.18.77-.76.71a1.8,1.8,0,0,1-1.06-.7L22.61,26.68c-.43-.42-1-.89-.33-1.44s.94,0,1.4.47c2.06,2.12,4.22,4.15,6.32,6.23s4,4,6,6A4.47,4.47,0,0,1,36.52,38.75Z"
    transform="translate(-0.24 -0.52)" />
  <path
    d="M82.53,81.67c-.14.38-.26.7-.56.83a.6.6,0,0,1-.77-.1,5.55,5.55,0,0,0-.42-.42L69.05,70.23c-.3-.3-.7-.52-.73-1a.87.87,0,0,1,.36-.92c.48-.31.62.12.85.34L76,75l6.13,6.13C82.28,81.34,82.41,81.53,82.53,81.67Z"
    transform="translate(-0.24 -0.52)" />
  <path
    d="M34.82,39.85a.92.92,0,0,1-1.26.62,3.32,3.32,0,0,1-.43-.41c-4-4-7.94-8-11.93-11.91-.46-.46-.72-.93-.23-1.4s.85,0,1.27.4c2.58,2.61,5.22,5.15,7.83,7.73,1.48,1.45,2.93,2.92,4.4,4.39C34.63,39.43,34.84,39.57,34.82,39.85Z"
    transform="translate(-0.24 -0.52)" />
  <path
    d="M89.27,32.37l0,.54a2.83,2.83,0,0,1-.45-.32Q82.27,26,75.69,19.41c-.68-.68-1.37-1.34-2-2-.2-.2-.57-.32-.46-.73A5.43,5.43,0,0,1,74,17a27.34,27.34,0,0,1,5.35,4c2.23,2.18,4.49,4.33,6.53,6.7C87,29,88,30.36,89,31.7A1.12,1.12,0,0,1,89.27,32.37Z"
    transform="translate(-0.24 -0.52)" />
  <path
    d="M13.08,43.72c.24.67.85.85,1.24,1.27,2.49,2.74,5.23,5.23,7.79,7.9a30.16,30.16,0,0,0,3.33,3.26c.61.46.5,1.21.81,1.79.06.11-.15.5-.32.57s-.46-.23-.64-.41c-4-4-8-8-12-12a3.11,3.11,0,0,1-.71-1.34C12.43,44.32,12.75,44.09,13.08,43.72Z"
    transform="translate(-0.24 -0.52)" />
  <path
    d="M64.78,24.22a.87.87,0,0,1-.29,1c-.2.19-.38-.13-.53-.28L51.21,12.17c-.16-.17-.52-.3-.24-.66s.57-.22.87-.16c1.51.32,2.22,1.66,3.23,2.59,1.71,1.59,3.32,3.29,5,4.94,1.47,1.46,2.95,2.91,4.37,4.41A2.26,2.26,0,0,1,64.78,24.22Z"
    transform="translate(-0.24 -0.52)" />
  <path
    d="M45.63,80.48c.81.47,1.73.4,2.44,1.15,2,2.19,4.25,4.25,6.38,6.36q2.29,2.28,4.58,4.57c.32.32.83.64.5,1.17s-.82-.09-1.27,0c-.18,0-.46-.27-.65-.46q-6-6-11.93-11.93c-.19-.19-.5-.33-.39-.67C45.33,80.58,45.53,80.53,45.63,80.48Z"
    transform="translate(-0.24 -0.52)" />
  <path
    d="M81.06,83.18c-.16.26-.26.62-.5.76a.75.75,0,0,1-1-.23c-.91-.95-1.85-1.88-2.78-2.81L68,72a5.66,5.66,0,0,1-.42-.43.89.89,0,0,1,0-1.18c.37-.53.77-.06,1,.13a13.69,13.69,0,0,1,1.7,1.62c2.07,2.29,4.35,4.38,6.5,6.59a32.38,32.38,0,0,0,3.6,3.52A1.66,1.66,0,0,1,81.06,83.18Z"
    transform="translate(-0.24 -0.52)" />
  <path
    d="M33.2,41.12c-.12.29-.17.59-.56.8s-.65-.13-.86-.34q-3.36-3.33-6.68-6.67l-5.16-5.16c-.33-.32-.66-.68-.4-1.13s.61-.81,1.13-.25c2.32,2.52,4.83,4.86,7.22,7.31C29.45,37.3,31,39,32.73,40.42A1,1,0,0,1,33.2,41.12Z"
    transform="translate(-0.24 -0.52)" />
  <path
    d="M13.25,42.45c.05-.25-.16-.61.2-.73s.59.1.83.34L19.17,47c1.65,1.66,3.32,3.3,5,5a8.41,8.41,0,0,1,2.06,2.39c.17.41.34,1-.18,1.29s-.64-.34-.89-.59Q19.52,49.47,14,43.87C13.55,43.47,13.1,43.12,13.25,42.45Z"
    transform="translate(-0.24 -0.52)" />
  <path
    d="M18.81,29.81c.43,0,.47.21.61.33,2,1.66,3.69,3.62,5.55,5.41,1.65,1.6,3.26,3.25,4.88,4.87.56.55,1.11,1.11,1.68,1.65s.15.86-.1,1.14-.64.28-1-.09q-5.9-5.94-11.83-11.85a.65.65,0,0,1-.15-.94C18.59,30.1,18.65,29.83,18.81,29.81Z"
    transform="translate(-0.24 -0.52)" />
  <path
    d="M79.47,84.42a.81.81,0,0,1-.49.78.67.67,0,0,1-.91-.19q-2.14-2.16-4.31-4.31C71.39,78.33,69,76,66.65,73.6c-.42-.41-.81-.78-.24-1.37s1,0,1.33.32c2.8,2.78,5.58,5.57,8.37,8.36,1,1,2,2,3,3C79.27,84.05,79.48,84.19,79.47,84.42Z"
    transform="translate(-0.24 -0.52)" />
  <path
    d="M26.63,52.47c0,.21.14.43-.14.58a.46.46,0,0,1-.63-.13c-.24-.26-.5-.51-.75-.76L14.47,41.52c-.27-.28-.63-.49-.73-.92a1.09,1.09,0,0,1,.31-1.18c.48-.35.65.23.9.48,1.66,1.64,3.34,3.25,4.94,4.93s3.45,3.28,5,5.12a5.32,5.32,0,0,0,.73.58A2.57,2.57,0,0,1,26.63,52.47Z"
    transform="translate(-0.24 -0.52)" />
  <path
    d="M30.37,44.08c-.13.31-.13.75-.54.93s-.56-.19-.77-.4L17.8,33.36c-.47-.47-.8-1-.29-1.53s1,.09,1.35.46c1.7,1.71,3.41,3.42,5.08,5.16,1.28,1.33,2.65,2.54,3.88,3.92a16.85,16.85,0,0,0,2,1.92C30.09,43.48,30.4,43.65,30.37,44.08Z"
    transform="translate(-0.24 -0.52)" />
  <path
    d="M27.24,49.75c-.06.47.17.92-.28,1.08s-.59-.3-.82-.53q-5.55-5.52-11.08-11.06l-.42-.43c-.47-.47-.07-1,.12-1.29s.69,0,1,.25q3.24,3.31,6.49,6.62c1.5,1.52,3,3,4.58,4.51C27.13,49.22,27.3,49.46,27.24,49.75Z"
    transform="translate(-0.24 -0.52)" />
  <path
    d="M16.37,34.28c-.05-.39-.08-.65.33-.83s.57.12.77.32c3.52,3.57,7,7.14,10.54,10.7.3.31.73.51,1,.86a.91.91,0,0,1-.13,1.28c-.49.43-.71,0-1-.3L16.79,35.23C16.51,35,16.14,34.7,16.37,34.28Z"
    transform="translate(-0.24 -0.52)" />
  <path
    d="M50.9,68.65a1.36,1.36,0,0,1-1.25-.55Q44.6,63,39.52,57.94c-.12-.11-.27-.2-.33-.34-.27-.66-1-1.41-.35-2s.89.51,1.23.83c2.23,2.14,4.37,4.38,6.54,6.57,1.54,1.55,3.09,3.08,4.64,4.62.24.23.7.35.49.81S51.19,68.62,50.9,68.65Z"
    transform="translate(-0.24 -0.52)" />
  <path
    d="M77.92,85.66a.89.89,0,0,1-1.2.82,2.65,2.65,0,0,1-.53-.48L65.29,75.1c-.35-.35-.86-.66-.28-1.26.4-.41.7-.56,1.13,0,1.48,1.77,3.2,3.3,4.8,4.94s3.1,3.19,4.75,4.67c.68.6,1.09,1.45,1.92,1.89C77.77,85.39,77.86,85.59,77.92,85.66Z"
    transform="translate(-0.24 -0.52)" />
  <path
    d="M16.07,35.24a1.94,1.94,0,0,0,.32.51c2,1.77,3.76,3.73,5.65,5.58,1.64,1.61,3.2,3.31,4.94,4.82a6.89,6.89,0,0,1,1.09,1.39.7.7,0,0,1-.22,1c-.39.3-.58,0-.79-.21q-5.67-5.65-11.33-11.31a1.19,1.19,0,0,1-.29-1.21C15.49,35.65,15.76,35.52,16.07,35.24Z"
    transform="translate(-0.24 -0.52)" />
  <path
    d="M61,93.34c-.33.07-.64-.22-1-.54L48.92,81.72c-.17-.17-.56-.32-.37-.62S49,81,49.27,81c1.15-.25,1.65.69,2.22,1.26,1.67,1.69,3.4,3.32,5,5.08s3.34,3.27,5,4.9c.24.24.68.43.55.84S61.46,93.27,61,93.34Z"
    transform="translate(-0.24 -0.52)" />
  <path
    d="M76.39,87.06a3.74,3.74,0,0,1-.69.48.93.93,0,0,1-1.15-.29C73.31,86,72,84.71,70.76,83.44Q67.3,80,63.84,76.52c-.34-.34-1-.69-.41-1.22s1-.4,1.52.16c2.75,2.82,5.55,5.58,8.33,8.37L76,86.55C76.12,86.66,76.19,86.8,76.39,87.06Z"
    transform="translate(-0.24 -0.52)" />
  <path
    d="M52.1,80.78c1.46-.19,1.89,1.12,2.63,1.81,2.44,2.25,4.73,4.65,7.08,7,.79.8,1.53,1.67,2.37,2.42.58.53.06.71-.23.78a1.52,1.52,0,0,1-1.52-.42c-3.56-3.6-7.14-7.17-10.72-10.75-.19-.19-.52-.35-.39-.67S51.88,80.84,52.1,80.78Z"
    transform="translate(-0.24 -0.52)" />
  <path
    d="M74.39,88.11c-.15.51-.43.8-1,.64a1.91,1.91,0,0,1-.83-.65L62.31,77.87c-.38-.38-1-.78-.36-1.33s1-.18,1.51.31c2.26,2.32,4.56,4.59,6.85,6.88,1.31,1.33,2.61,2.67,3.93,4C74.36,87.85,74.46,87.94,74.39,88.11Z"
    transform="translate(-0.24 -0.52)" />
  <path
    d="M60.78,77.38a6.25,6.25,0,0,1,.91.62c2.18,2.2,4.32,4.42,6.5,6.61,1.15,1.16,2.37,2.25,3.52,3.42.4.4,1.26.8.61,1.5s-1.14.09-1.61-.38Q65.61,84,60.5,78.91c-.26-.26-.7-.46-.48-1C60.16,77.58,60.58,77.69,60.78,77.38Z"
    transform="translate(-0.24 -0.52)" />
  <path
    d="M54.56,80.28a1.65,1.65,0,0,1,1.38.59,41.15,41.15,0,0,0,3.51,3.6c1.6,1.6,3.14,3.26,4.83,4.76a24.72,24.72,0,0,0,1.92,1.91c.23.16.76.47.31.81a1.12,1.12,0,0,1-1.28.28,2.68,2.68,0,0,1-.53-.48q-5.25-5.23-10.49-10.49c-.19-.19-.61-.33-.4-.74S54.28,80.27,54.56,80.28Z"
    transform="translate(-0.24 -0.52)" />
  <path
    d="M57,79.53c.39-.15.58.08.77.28,2.92,3.14,6.13,6,9,9.17a19,19,0,0,1,1.49,1.49c.21.29.63.43.19.78a1.06,1.06,0,0,1-1.19.19,1.8,1.8,0,0,1-.43-.4q-5.14-5.15-10.29-10.3c-.23-.23-.67-.38-.44-.86S56.75,79.61,57,79.53Z"
    transform="translate(-0.24 -0.52)" />
  <path
    d="M58.66,78.58a2.51,2.51,0,0,1,1.61.88c2.52,2.72,5.3,5.19,7.81,7.92a20.37,20.37,0,0,0,2.13,2c.29.24.68.48.36,1s-.76.34-1.17.24c-.17,0-.32-.23-.46-.37Q63.69,85,58.45,79.75c-.2-.2-.54-.33-.29-.77C58.32,78.7,58.42,78.52,58.66,78.58Z"
    transform="translate(-0.24 -0.52)" />
  <path
    d="M91.71,24.69a5.6,5.6,0,0,1,.43.41c2.42,2.7,5.12,5.14,7.63,7.76a17.47,17.47,0,0,1,3.53,4.33,6,6,0,0,1,.33.74.53.53,0,0,1-.07.45c-.21.19-.36-.07-.47-.18-.74-.73-1.46-1.47-2.2-2.21-3-3-6.13-5.85-8.44-9.45-.31-.49-.38-1.1-.83-1.51A.19.19,0,0,1,91.71,24.69Z"
    transform="translate(-0.24 -0.52)" />
  <path
    d="M38,103.4c0,.4-.35.25-.48.2a7.87,7.87,0,0,1-2.67-1.44L24.65,91.93a3.7,3.7,0,0,1-.32-.43,1.79,1.79,0,0,1,.54.16,45.6,45.6,0,0,1,8.74,7.19,25.44,25.44,0,0,0,3.59,3.52A1.77,1.77,0,0,1,38,103.4Z"
    transform="translate(-0.24 -0.52)" />
  <path
    d="M68.58,2.93a8.18,8.18,0,0,1,3.69,2.31l6.52,6.53,3,3c.09.09.24.24.23.26-.15.18-.27,0-.37-.07-.87-.59-1.78-1.12-2.67-1.69-4.07-2.6-7-6.43-10.49-9.65-.13-.13-.31-.3-.32-.46S68.38,3,68.58,2.93Z"
    transform="translate(-0.24 -0.52)" />
  <path
    d="M2.64,68.78c.07-.26.06-.54.18-.62s.34.13.47.26c2.26,2.26,4.59,4.44,6.73,6.8a31.31,31.31,0,0,1,4.61,6.45l.19.29c-.2.12-.25-.11-.32-.18-3.5-3.49-7-7-10.46-10.49A8.4,8.4,0,0,1,2.64,68.78Z"
    transform="translate(-0.24 -0.52)" />
  <path
    d="M49.13,68.43a.53.53,0,0,1-.72.21,5.92,5.92,0,0,1-2.36-1.28c-1.62-1.65-3.27-3.28-4.91-4.91-.85-.85-1.22-2-2-2.94-.14-.16,0-.52,0-.79a2.55,2.55,0,0,1,.69.31,22.09,22.09,0,0,1,1.76,1.73C43.6,63,46,65,47.94,67.31,48.29,67.72,48.92,67.85,49.13,68.43Z"
    transform="translate(-0.24 -0.52)" />
  <path
    d="M64.48,1.68a8.44,8.44,0,0,1,2.28,1.1c2,1.68,3.75,3.66,5.63,5.49a10.63,10.63,0,0,1,1.76,1.85c0,.09.21.19.2.23s-.17.08-.29,0a10.66,10.66,0,0,1-3.59-2c-2.07-2-4.07-4-6.1-6.06a2.63,2.63,0,0,1-.31-.48Z"
    transform="translate(-0.24 -0.52)" />
  <path
    d="M1.7,65.07c.05-.32,0-.62.12-.69.31-.18.34.23.47.35,2.79,2.73,5.88,5.18,7.78,8.7.17.33.29.68.07.86s-.46-.2-.63-.37q-3.39-3.37-6.77-6.77A6,6,0,0,1,1.7,65.07Z"
    transform="translate(-0.24 -0.52)" />
  <path
    d="M104.6,42c0-.08,0,.11-.19.14A.53.53,0,0,1,104,42c-2.53-2.83-5.79-5-7.58-8.5a3.2,3.2,0,0,1-.27-.52,9.79,9.79,0,0,1-.2-1c.4,0,.56.38.8.62,1.65,1.65,3.29,3.32,5,4.95A9,9,0,0,1,104.6,42Z"
    transform="translate(-0.24 -0.52)" />
  <path
    d="M41.32,104.61a6.7,6.7,0,0,1-2.3-1.18l-6.67-6.67c-.16-.16-.49-.35-.36-.54s.51.06.7.13a14,14,0,0,1,5,3.59c1.27,1.32,2.59,2.58,3.88,3.88.18.18.54.33.41.64C41.92,104.57,41.55,104.56,41.32,104.61Z"
    transform="translate(-0.24 -0.52)" />
  <path
    d="M30.71,87.05c-.24.35-.35.22-.53.15a12,12,0,0,1-3.79-2.88,79.36,79.36,0,0,1-6.71-7,5.35,5.35,0,0,1-1-1.94c.6.21.87.8,1.28,1.21,2.22,2.14,4.34,4.38,6.52,6.57,1.15,1.16,2.34,2.27,3.53,3.4A8.16,8.16,0,0,0,30.71,87.05Z"
    transform="translate(-0.24 -0.52)" />
  <path
    d="M61.41,1.24c1.61.12,2.45,1.4,3.47,2.38,1.32,1.26,2.59,2.57,3.88,3.86.21.21.67.44.52.7s-.6.13-.94,0a9.68,9.68,0,0,1-2.77-1.69c-1.44-1.53-3-3-4.46-4.48-.16-.17-.56-.29-.33-.62A.44.44,0,0,1,61.41,1.24Z"
    transform="translate(-0.24 -0.52)" />
  <path
    d="M45,105.32c-.68-.34-1.53-.32-2.16-1-1.76-1.84-3.59-3.61-5.39-5.42-.16-.16-.57-.31-.31-.61s.47-.06.76,0a10.69,10.69,0,0,1,4.3,3.32c1,1.08,2.19,2,3.1,3.18.1.13.47.1.32.37C45.51,105.33,45.2,105.29,45,105.32Z"
    transform="translate(-0.24 -0.52)" />
  <path
    d="M98.22,37.84l0-.75.42.36c1.22,1.21,2.47,2.39,3.64,3.65a14.26,14.26,0,0,1,2,2.08c.08.13.23.24.27.37.2.67.78,1.46.28,2-.26.26-.84-.64-1.25-1-1.37-1.33-2.72-2.69-4.06-4A7.49,7.49,0,0,1,98.22,37.84Z"
    transform="translate(-0.24 -0.52)" />
  <path
    d="M1.23,60.79c.14.07.28.09.34.17.89,1.15,2.13,2,3,3.09.58.75,1.37,1.26,2,2S7.44,67.78,8,68.57a.7.7,0,0,1,0,.66c-.32.25-.45-.15-.62-.32C5.57,67.12,3.79,65.3,2,63.51A5.76,5.76,0,0,1,1,61.41.5.5,0,0,1,1.23,60.79Z"
    transform="translate(-0.24 -0.52)" />
  <path
    d="M99.67,41.31c.11.42.56.49.83.77,1.43,1.45,2.88,2.87,4.3,4.32.57.59.52,1.46.86,2.16,0,.09-.1.31-.21.4s-.28-.06-.38-.17c-1.85-2.14-4.38-3.69-5.63-6.37-.14-.3-.41-.6,0-.94C99.48,41.4,99.49,41.26,99.67,41.31Z"
    transform="translate(-0.24 -0.52)" />
  <path
    d="M6.93,64.72c0,.2,0,.43-.14.49s-.35-.1-.48-.23c-1.66-1.66-3.35-3.3-5-5a5.35,5.35,0,0,1-.81-1.66.52.52,0,0,1,.18-.65c.27-.18.44,0,.6.19,1.55,1.55,3.16,3,4.62,4.68A8.07,8.07,0,0,1,6.93,64.72Z"
    transform="translate(-0.24 -0.52)" />
  <path
    d="M48.78,105.35c-.29.15-.45.55-.8.38-.62-.32-1.33-.37-1.87-.93-1.51-1.59-3.09-3.11-4.63-4.66-.17-.17-.57-.34-.36-.62s.48-.07.77,0c1.9.49,3,2,4.34,3.24.76.72,1.48,1.48,2.21,2.23Z"
    transform="translate(-0.24 -0.52)" />
  <path
    d="M64.29,6.9c-.68-.34-1.53-.39-2.15-1-1.38-1.42-2.8-2.81-4.2-4.22-.21-.21-.62-.38-.34-.75s.49-.14.76-.05a4.82,4.82,0,0,1,2,1.11c1.42,1.44,2.86,2.86,4.29,4.3.13.13.33.35.3.45C64.88,7,64.57,6.82,64.29,6.9Z"
    transform="translate(-0.24 -0.52)" />
  <path
    d="M100.37,44.9l1.88,1.82c.77.76,1.48,1.58,2.3,2.29a4.46,4.46,0,0,1,1.22,2.09.58.58,0,0,1-.24.74c-.29.14-.43-.13-.58-.29-1.32-1.31-2.66-2.61-3.94-4a3,3,0,0,1-.88-2.16C100.14,45.26,100,44.9,100.37,44.9Z"
    transform="translate(-0.24 -0.52)" />
  <path
    d="M54.88.53A4.06,4.06,0,0,1,57.2,1.7C58.5,2.94,59.74,4.24,61,5.57c.12.13.67.17.35.53a.81.81,0,0,1-.74.13c-.66-.33-1.4-.39-2-1-1.21-1.33-2.52-2.55-3.79-3.82-.16-.16-.42-.3-.32-.57S54.7.49,54.88.53Z"
    transform="translate(-0.24 -0.52)" />
  <path
    d="M45.46,57.09c-.07.29.09.62-.18.69s-.39-.2-.54-.36c-1.5-1.48-3-3-4.47-4.47-.39-.39-.68-.76-.22-1.32s.83-.09,1.13.19q1.88,1.77,3.69,3.6C45.33,55.89,45.26,56.58,45.46,57.09Z"
    transform="translate(-0.24 -0.52)" />
  <path
    d="M100.73,48.07l.47.5,3.64,3.6c.2.2.53.39.55.61.08.61.87,1.33.13,1.82-.56.37-.83-.51-1.2-.84-1-.91-1.89-1.94-2.89-2.84a4.44,4.44,0,0,1-1-2C100.29,48.6,100.77,48.52,100.73,48.07Z"
    transform="translate(-0.24 -0.52)" />
  <path
    d="M52.46.53a3.14,3.14,0,0,1,1.27.58C55,2.37,56.29,3.62,57.56,4.89c.18.18.56.37.4.64a.83.83,0,0,1-.85.19A3,3,0,0,1,55.52,5C54.35,3.8,53.16,2.63,52,1.44c-.18-.18-.53-.31-.36-.65S52.08.54,52.46.53Z"
    transform="translate(-0.24 -0.52)" />
  <path
    d="M56.65,105.76a1.71,1.71,0,0,1-1.45-.53q-1.83-1.8-3.63-3.61c-.16-.16-.42-.33-.29-.59s.43-.16.65-.16c1.44,0,2.09,1.21,3,2s1.35,1.58,2.21,2.19c.16.12.33.29.26.49C57.26,106,56.86,105.71,56.65,105.76Z"
    transform="translate(-0.24 -0.52)" />
  <path
    d="M49.57.64c.71,0,1.28.53,1.84,1,1.15,1,2,2.26,3.25,3.2.15.12.33.31.19.49s-.36.46-.58.33c-.48-.25-1.09-.15-1.5-.57L49.14,1.49C49,1.3,48.67,1.12,49,.81,49.09.68,49.19.46,49.57.64Z"
    transform="translate(-0.24 -0.52)" />
  <path
    d="M105.53,56.8c.15.23.17.45-.07.62s-.43-.05-.59-.21c-1.24-1.23-2.47-2.47-3.7-3.7-.45-.45-.18-1.14-.52-1.63.24,0,0-.85.64-.24,1.23,1.29,2.57,2.47,3.84,3.73A1.74,1.74,0,0,1,105.53,56.8Z"
    transform="translate(-0.24 -0.52)" />
  <path
    d="M55.24,100.86c.77-.06,1.17.69,1.72,1.23a20.19,20.19,0,0,1,2.69,2.78c.11.15.54.14.23.48-.14.16-.21.38-.55.27-.52-.16-1.06-.12-1.5-.6-1-1.11-2.13-2.14-3.19-3.22-.19-.18-.53-.34-.41-.65S54.76,100.88,55.24,100.86Z"
    transform="translate(-0.24 -0.52)" />
  <path
    d="M5.42,51.56c0,.12.18.48-.2.59s-.42-.18-.58-.34L1.26,48.42C1,48.2.77,48,.8,47.62s-.26-1,.23-1.2.7.35,1,.63c1,1.07,2.09,2,3,3.1A1.76,1.76,0,0,1,5.42,51.56Z"
    transform="translate(-0.24 -0.52)" />
  <path
    d="M105.27,59.29c.09.32.28.59-.07.78s-.5-.15-.67-.32c-1.08-1.06-2.13-2.13-3.19-3.2-.11-.11-.29-.22-.31-.35-.11-.56-.88-1.19-.13-1.66.5-.31.9.36,1.25.7.9.86,1.74,1.78,2.65,2.62A1.48,1.48,0,0,1,105.27,59.29Z"
    transform="translate(-0.24 -0.52)" />
  <path
    d="M52,5.29c-.14.1-.34.37-.5.35a2.66,2.66,0,0,1-1.42-.38c-1.3-1.17-2.52-2.44-3.76-3.68-.2-.2-.13-.41,0-.62s.37-.06.59,0c1.81.33,2.6,2,3.8,3C51.21,4.34,51.82,4.58,52,5.29Z"
    transform="translate(-0.24 -0.52)" />
  <path
    d="M105.05,61.83c.07.36,0,.65-.27.77s-.46-.2-.65-.38c-1-1-1.9-2-3-2.91-.62-.52-.36-1.26-.74-1.8-.05-.07.14-.34.26-.47s.35,0,.48.11c1.18,1.17,2.37,2.33,3.51,3.53A1.22,1.22,0,0,1,105.05,61.83Z"
    transform="translate(-0.24 -0.52)" />
  <path
    d="M44.47,1.24a2,2,0,0,1,1.43.61A36.7,36.7,0,0,0,49,4.9c.19.15.54.39.25.67s-.41.49-.8.27-1-.28-1.43-.74c-.9-1-1.9-1.92-2.85-2.88-.19-.19-.53-.35-.42-.66S44.2,1.21,44.47,1.24Z"
    transform="translate(-0.24 -0.52)" />
  <path
    d="M5.69,48.61c0,.39,0,.61-.22.77s-.49-.11-.65-.28C3.77,48.07,2.75,47,1.69,46A3.84,3.84,0,0,1,1,44.76c-.16-.32.14-.64.34-.81.38-.31.37.2.56.34A31,31,0,0,1,5.11,47.4C5.53,47.84,5.44,48.34,5.69,48.61Z"
    transform="translate(-0.24 -0.52)" />
  <path
    d="M50.68,62.27c.54.48,1.31.26,1.92.92a22,22,0,0,0,2.32,2.31c.34.28.81.72.23,1.26s-.89.21-1.29-.2c-1.16-1.19-2.35-2.35-3.52-3.53a5.47,5.47,0,0,1-.44-.54Z"
    transform="translate(-0.24 -0.52)" />
  <path
    d="M5.93,46.06c-.09.27.2.68-.23.81s-.47-.22-.66-.41l-3-3c-.14-.14-.35-.27-.4-.44-.12-.44-.35-1,.08-1.32s.79.11,1.07.38c1,.94,1.92,1.93,2.89,2.88C6,45.27,5.87,45.67,5.93,46.06Z"
    transform="translate(-0.24 -0.52)" />
  <path
    d="M104.57,64.13c0,.3.12.67-.26.83s-.49-.19-.68-.37c-1-1-1.93-1.91-2.87-2.88a2.71,2.71,0,0,1-.52-.79c-.16-.41-.25-.9.18-1.19s.57.24.83.47a31.15,31.15,0,0,1,3,3A1.32,1.32,0,0,1,104.57,64.13Z"
    transform="translate(-0.24 -0.52)" />
  <path
    d="M42.05,1.77c1-.1,1.27.55,1.74.94.89.72,1.55,1.66,2.44,2.36.25.19.5.44.31.81s-.61.32-.93.26a2.21,2.21,0,0,1-1.1-.66c-.89-.91-1.8-1.8-2.68-2.7-.21-.22-.59-.39-.46-.76S42,1.78,42.05,1.77Z"
    transform="translate(-0.24 -0.52)" />
  <path
    d="M61.53,105a1.23,1.23,0,0,1-1.18-.37c-1-1.06-2.08-2.09-3.12-3.13-.16-.16-.47-.32-.31-.55a.86.86,0,0,1,.7-.32,2.72,2.72,0,0,1,1.3.47c1,.94,2,2,3,2.95a.81.81,0,0,1,.3.74C62.12,105.26,61.68,104.92,61.53,105Z"
    transform="translate(-0.24 -0.52)" />
  <path
    d="M63.94,104.55c-.6.28-.91-.08-1.25-.43-.95-1-1.91-1.91-2.86-2.87-.17-.16-.43-.31-.34-.57s.42-.28.71-.29a2.08,2.08,0,0,1,1.59.68c.9.91,1.81,1.81,2.72,2.72.17.17.41.37.26.6S64.28,104.92,63.94,104.55Z"
    transform="translate(-0.24 -0.52)" />
  <path
    d="M2.23,40c-.27-.38-.06-.6.23-.77s.49.15.65.32a37,37,0,0,0,2.8,2.8c.21.16.46.34.45.66s.32,1-.17,1.32-.71-.33-1-.59c-.82-.75-1.57-1.57-2.37-2.34C2.41,41,2,40.6,2.23,40Z"
    transform="translate(-0.24 -0.52)" />
  <path
    d="M104.1,66.46a.62.62,0,0,1-.29.72c-.34.21-.52,0-.71-.23-1-1-1.89-1.94-2.87-2.87-.39-.37-.26-.89-.51-1.3-.07-.12.16-.51.34-.67s.43.07.59.22c1,1,2,2.06,3.06,3.06A1.31,1.31,0,0,1,104.1,66.46Z"
    transform="translate(-0.24 -0.52)" />
  <path
    d="M39.94,2.22c.83-.19,1.18.6,1.53,1,.75.92,1.83,1.49,2.46,2.51.14.22.44.29.23.62a.52.52,0,0,1-.71.24c-.5-.29-1.1-.33-1.53-.83-.78-.9-1.67-1.69-2.51-2.53-.19-.19-.46-.36-.29-.7A.64.64,0,0,1,39.94,2.22Z"
    transform="translate(-0.24 -0.52)" />
  <path
    d="M45.64,53.84c.09.42,0,.79-.34.95s-.54-.23-.75-.44c-1-1-2-2-3-3-.29-.28-.62-.56-.25-1s.69-.35,1.13-.07a11.22,11.22,0,0,1,2.5,2.46C45.15,53,46,53.13,45.64,53.84Z"
    transform="translate(-0.24 -0.52)" />
  <path
    d="M66.39,104a1.3,1.3,0,0,1-1.33-.42c-.8-.84-1.65-1.62-2.43-2.47-.27-.3-1-.57-.52-1.09a1.18,1.18,0,0,1,1.53.06,42.08,42.08,0,0,1,3,3.08c.14.15.52.31.38.66S66.49,104,66.39,104Z"
    transform="translate(-0.24 -0.52)" />
  <path
    d="M41.19,7.15c-.36,0-.62,0-.74-.09-1.2-1.15-2.39-2.32-3.55-3.5A.33.33,0,0,1,37.14,3c.57,0,1.16-.16,1.66.38.89,1,1.86,1.87,2.79,2.8.17.16.36.33.23.61A.6.6,0,0,1,41.19,7.15Z"
    transform="translate(-0.24 -0.52)" />
  <path
    d="M65.37,99.41c1.19.08,1.51,1.42,2.43,2,.38.22.57.71,1,1s.74.41.37.93a.79.79,0,0,1-1.14.26A27.23,27.23,0,0,1,64.48,100C64,99.36,64.9,99.53,65.37,99.41Z"
    transform="translate(-0.24 -0.52)" />
  <path
    d="M99.19,65.38c0-1,.5-1,.93-.6a37.21,37.21,0,0,1,3.13,3.15,1,1,0,0,1-.08,1.3c-.55.48-.76-.14-1-.4-.83-.79-1.62-1.64-2.45-2.44C99.34,66.07,99.11,65.73,99.19,65.38Z"
    transform="translate(-0.24 -0.52)" />
  <path
    d="M6.88,41.18c0,.26.12.57-.2.75s-.57-.17-.77-.36c-1-.92-1.86-1.87-2.8-2.78a1,1,0,0,1-.4-1.06c.12-.33.12-1.16.94-.4,1,.94,2,1.87,2.91,2.89A1.52,1.52,0,0,1,6.88,41.18Z"
    transform="translate(-0.24 -0.52)" />
  <path
    d="M7.59,38.84a.64.64,0,0,1-.32.81c-.4.2-.56-.15-.77-.36-.88-.87-1.73-1.76-2.63-2.61a1.13,1.13,0,0,1-.44-1.15c.13-.43.4-1,1-.44,1,.9,1.87,1.87,2.81,2.79A1.15,1.15,0,0,1,7.59,38.84Z"
    transform="translate(-0.24 -0.52)" />
  <path
    d="M70.67,102.9a1.15,1.15,0,0,1-1-.4c-.89-.91-1.8-1.8-2.7-2.71-.2-.21-.54-.37-.31-.78a.7.7,0,0,1,.94-.26,3.21,3.21,0,0,1,1.53,1.08c.56.76,1.46,1.2,1.87,2.08.1.21.71.09.36.54C71.2,102.69,71.07,103.06,70.67,102.9Z"
    transform="translate(-0.24 -0.52)" />
  <path
    d="M33.55,4.39c.61-.11.89.38,1.25.74.75.73,1.47,1.48,2.22,2.21.27.26.52.49.26.91a.73.73,0,0,1-1,.26,18,18,0,0,1-3.46-3.4C32.45,4.7,32.91,4.26,33.55,4.39Z"
    transform="translate(-0.24 -0.52)" />
  <path
    d="M99.09,66.64c.52.21.62.72,1,1a9.11,9.11,0,0,1,2.47,2.63.82.82,0,0,1-.15,1.16c-.51.35-.7-.18-1-.42-.91-.88-1.77-1.81-2.69-2.68-.45-.41-.2-.85-.14-1.27C98.64,66.91,98.94,66.78,99.09,66.64Z"
    transform="translate(-0.24 -0.52)" />
  <path
    d="M101.93,72.76c.1.43-.19.6-.45.78s-.44-.05-.59-.21c-1-1-1.93-1.9-2.87-2.88a.88.88,0,0,1-.08-1.27c.47-.48.86-.07,1.2.27.85.86,1.69,1.73,2.55,2.58A.91.91,0,0,1,101.93,72.76Z"
    transform="translate(-0.24 -0.52)" />
  <path
    d="M69.51,98c.36,0,.68,0,.94.24.93,1,1.87,1.88,2.82,2.81.24.24.35.52,0,.68s-.78.68-1.25.22c-1-1-2-2-3.06-3-.18-.18-.3-.36-.15-.62A.59.59,0,0,1,69.51,98Z"
    transform="translate(-0.24 -0.52)" />
  <path
    d="M8.29,36.65c.09.39,0,.68-.31.85s-.51-.09-.69-.28c-.9-.89-1.75-1.83-2.7-2.67a1,1,0,0,1-.08-1.42c.42-.55.88,0,1.12.31.71.89,1.7,1.49,2.34,2.46C8.15,36.17,8.34,36.37,8.29,36.65Z"
    transform="translate(-0.24 -0.52)" />
  <path
    d="M101,74.68c0,.36.09.73-.34.91s-.56-.2-.77-.41c-.8-.78-1.56-1.59-2.38-2.36a1.21,1.21,0,0,1-.35-1.39c.16-.46.45-.76.91-.22a19.3,19.3,0,0,0,2.63,2.64A.7.7,0,0,1,101,74.68Z"
    transform="translate(-0.24 -0.52)" />
  <path
    d="M38.72,7.55a1.16,1.16,0,0,1-1.17-.41c-.74-.77-1.52-1.5-2.26-2.27-.24-.25-.78-.44-.42-1a.9.9,0,0,1,1.28-.15,39.35,39.35,0,0,1,3,2.92c.15.15.44.42.3.72S38.86,7.45,38.72,7.55Z"
    transform="translate(-0.24 -0.52)" />
  <path
    d="M29.81,6.11c.37,0,.53.31.74.52.78.76,1.56,1.52,2.31,2.31.24.25.82.48.35.93s-.85.61-1.28.22c-1.05-1-2.08-2-3.05-3C28.54,6.7,29.11,6.12,29.81,6.11Z"
    transform="translate(-0.24 -0.52)" />
  <path
    d="M9.06,34.42a1,1,0,0,1-.4,1c-.31.16-.51-.28-.72-.49-.8-.78-1.56-1.58-2.37-2.35a1.23,1.23,0,0,1-.47-1.15c.08-.46.44-.9.86-.54,1.06.91,2,1.93,3,2.93C9.06,34,9,34.24,9.06,34.42Z"
    transform="translate(-0.24 -0.52)" />
  <path
    d="M73.63,96.35c.6-.12.93.23,1.27.58.72.77,1.44,1.54,2.18,2.28.21.2.49.3.26.65s-.32.44-.66.42a1.29,1.29,0,0,1-1-.38c-.84-.85-1.7-1.69-2.54-2.53-.19-.19-.47-.37-.31-.7A.55.55,0,0,1,73.63,96.35Z"
    transform="translate(-0.24 -0.52)" />
  <path
    d="M72,97.19c.37-.11.38.36.62.5.95.58,1.46,1.61,2.37,2.23.35.25.65.64.27,1.09a.82.82,0,0,1-1.18.06c-1-.95-2-2-3-3a.36.36,0,0,1-.06-.52C71.22,97.21,71.61,97.34,72,97.19Z"
    transform="translate(-0.24 -0.52)" />
  <path
    d="M35.32,8.75c.07.22-.12.21-.23.31a.93.93,0,0,1-1.2.09c-1.06-1-2.05-2-3.06-3a.41.41,0,0,1,0-.63A.88.88,0,0,1,32,5.4a17.15,17.15,0,0,1,3.21,3.16Z"
    transform="translate(-0.24 -0.52)" />
  <path
    d="M10,32.62a.56.56,0,0,1-.35.73c-.37.19-.51-.05-.69-.23Q7.67,31.88,6.42,30.6c-.48-.49-.6-1.05,0-1.54s.82.21,1.11.48c.73.68,1.37,1.47,2.11,2.15A1.08,1.08,0,0,1,10,32.62Z"
    transform="translate(-0.24 -0.52)" />
  <path
    d="M96.74,73.08a2.57,2.57,0,0,1,.66.42c.75,1,1.77,1.64,2.51,2.61.46.6.15,1-.12,1.28-.42.48-.68-.09-.92-.33-.83-.79-1.62-1.62-2.44-2.43-.27-.27-.44-.53-.19-.93C96.39,73.48,96.47,73.21,96.74,73.08Z"
    transform="translate(-0.24 -0.52)" />
  <path
    d="M75.48,95.35c1.2.06,1.51,1.17,2.3,1.62.42.24.59.8,1.07,1s.42.56.18,1a.63.63,0,0,1-1,.2,29.59,29.59,0,0,1-3.15-3.08C74.41,95.56,75.09,95.41,75.48,95.35Z"
    transform="translate(-0.24 -0.52)" />
  <path
    d="M43.37,48.89a2,2,0,0,1,.4,0C44.2,49,47,51.6,47,52a1.2,1.2,0,0,1-.48.9c-.34.29-.49,0-.68-.17L43,50c-.19-.2-.41-.41-.29-.72A.53.53,0,0,1,43.37,48.89Z"
    transform="translate(-0.24 -0.52)" />
  <path
    d="M25.92,8.23c.31,0,.45.16.64.28,1,.64,1.59,1.72,2.54,2.41.32.23.55.65.17,1A.85.85,0,0,1,28,12c-.94-.91-1.85-1.84-2.77-2.76-.12-.13-.34-.26-.18-.49S25.66,8.35,25.92,8.23Z"
    transform="translate(-0.24 -0.52)" />
  <path
    d="M27.76,7.26c.63-.13.95.38,1.33.78.64.67,1.22,1.41,1.91,2,.27.25.46.31.2.71s-.32.47-.7.41a1.19,1.19,0,0,1-.73-.34c-.84-.85-1.69-1.69-2.52-2.54-.23-.22-.47-.44-.27-.81S27.44,7.25,27.76,7.26Z"
    transform="translate(-0.24 -0.52)" />
  <path
    d="M81.07,97.55c-.15.24-.16.55-.55.57s-.59.29-.93-.08c-.84-.9-1.75-1.74-2.62-2.62-.21-.21-.53-.47-.17-.79s.75-.66,1.13-.33c1,.94,2,2,3,3A1,1,0,0,1,81.07,97.55Z"
    transform="translate(-0.24 -0.52)" />
  <path
    d="M12,28.57c-.22.32,0,.83-.44,1s-.63-.23-.86-.45c-.77-.74-1.48-1.55-2.28-2.26-.53-.47-.59-1-.14-1.41s.7,0,1.09.31c.82.58,1.3,1.47,2.11,2A.88.88,0,0,1,12,28.57Z"
    transform="translate(-0.24 -0.52)" />
  <path
    d="M99.05,78.49c0,.37.07.65-.34.82s-.52,0-.71-.24l-2.52-2.52a.81.81,0,0,1,.06-1.39c.63-.48.79.17,1.09.47.68.67,1.33,1.4,2.05,2C99,77.93,99.18,78.14,99.05,78.49Z"
    transform="translate(-0.24 -0.52)" />
  <path
    d="M98.1,80.23a1,1,0,0,1-.36.84.64.64,0,0,1-.84-.2c-.77-.8-1.57-1.58-2.35-2.37-.47-.49-.63-1.06-.07-1.54s.7.27,1,.49c.8.53,1.28,1.37,2,1.93C97.83,79.59,98.13,79.83,98.1,80.23Z"
    transform="translate(-0.24 -0.52)" />
  <path
    d="M10.94,30.66c.09.34-.17.48-.37.67s-.5,0-.69-.15c-.85-.84-1.7-1.68-2.53-2.53a.93.93,0,0,1-.14-1.37c.42-.45.87,0,1.12.27A16.11,16.11,0,0,1,10.66,30C10.79,30.22,11,30.38,10.94,30.66Z"
    transform="translate(-0.24 -0.52)" />
  <path
    d="M24.32,9.18c.56.5,1.11,1,1.63,1.46s.89.88,1.33,1.32c.27.29.67.61.22,1s-.76.62-1.24.13l-2.62-2.62a.61.61,0,0,1-.18-.71C23.6,9.22,24.11,9.54,24.32,9.18Z"
    transform="translate(-0.24 -0.52)" />
  <path
    d="M13.74,26.07c-.15,0-.26,0-.3,0a17.77,17.77,0,0,1-3-3.17.52.52,0,0,1,.26-.85c.4-.16.63-.2.93.1.84.87,1.69,1.72,2.54,2.57a.65.65,0,0,1,0,.86C14.08,25.76,14.07,26.14,13.74,26.07Z"
    transform="translate(-0.24 -0.52)" />
  <path
    d="M82.74,96.53c-.23.81-.82.83-1.26.45a30.77,30.77,0,0,1-2.86-2.85c-.5-.58.11-.83.57-.89C79.89,93.15,82.76,95.92,82.74,96.53Z"
    transform="translate(-0.24 -0.52)" />
  <path
    d="M81.26,92c.22,0,.47.19.65.45.62.86,1.6,1.39,2.17,2.31.18.28.64.34.22.78s-.72.66-1.12.29c-1-.88-1.87-1.84-2.79-2.77a.51.51,0,0,1-.07-.66C80.48,92.15,80.79,92.06,81.26,92Z"
    transform="translate(-0.24 -0.52)" />
  <path
    d="M9.82,23.51c.29,0,.41.14.55.28.76.77,1.51,1.55,2.29,2.3.5.48.67,1,.19,1.55s-.82-.08-1.11-.36c-.79-.74-1.53-1.53-2.3-2.28a.81.81,0,0,1-.19-1A2.11,2.11,0,0,1,9.82,23.51Z"
    transform="translate(-0.24 -0.52)" />
  <path
    d="M93.3,86.91c.07.39-.19.58-.44.78s-.52.08-.73-.13c-.85-.83-1.69-1.67-2.53-2.51a.78.78,0,0,1-.08-1.14.74.74,0,0,1,1.2.08c.73.84,1.56,1.61,2.34,2.41A.61.61,0,0,1,93.3,86.91Z"
    transform="translate(-0.24 -0.52)" />
  <path
    d="M96.91,82.23c0,.2.16.48-.21.58s-.49.23-.74,0L93.19,80c-.43-.43-.09-.83.13-1.15.35-.49.57,0,.84.19,1,.54,1.54,1.53,2.37,2.23A1.14,1.14,0,0,1,96.91,82.23Z"
    transform="translate(-0.24 -0.52)" />
  <path
    d="M22.8,10.39c.16.16.37.34.56.53.74.74,1.45,1.5,2.22,2.21.35.32.51.67.19,1s-.71.59-1.11.21c-.95-.9-1.87-1.84-2.8-2.77a.37.37,0,0,1,0-.6A2,2,0,0,1,22.8,10.39Z"
    transform="translate(-0.24 -0.52)" />
  <path
    d="M20.93,11.82a.6.6,0,0,1,.76.3c.58,1,1.59,1.48,2.28,2.33.3.36.5.58.16,1a.69.69,0,0,1-1.05.15c-1-.88-1.89-1.82-2.82-2.75a.66.66,0,0,1,0-.78A.56.56,0,0,1,20.93,11.82Z"
    transform="translate(-0.24 -0.52)" />
  <path
    d="M89.2,91.32c-.23.26-.15.69-.52.79a.79.79,0,0,1-.86-.21q-1.25-1.28-2.52-2.52a.65.65,0,0,1-.06-1,.76.76,0,0,1,1.06-.13c1,.91,1.86,1.87,2.78,2.81C89.15,91.11,89.16,91.24,89.2,91.32Z"
    transform="translate(-0.24 -0.52)" />
  <path
    d="M86.66,93.49a2.34,2.34,0,0,1-.37-.27c-.85-.84-1.67-1.71-2.54-2.52a.6.6,0,0,1,0-1c.25-.22.64-.51,1-.1.9.91,1.84,1.78,2.71,2.72C87.87,92.72,87.38,93.46,86.66,93.49Z"
    transform="translate(-0.24 -0.52)" />
  <path
    d="M90.63,89.84a2.46,2.46,0,0,1-.46.77.61.61,0,0,1-.85-.09c-.86-.89-1.74-1.76-2.62-2.62a.47.47,0,0,1,0-.8c.29-.24.57-.71,1-.32,1,.91,1.87,1.88,2.8,2.82A.77.77,0,0,1,90.63,89.84Z"
    transform="translate(-0.24 -0.52)" />
  <path
    d="M82.86,90.58l.67.62c.76.78,1.5,1.58,2.3,2.31a.52.52,0,0,1,0,.82c-.28.27-.66.65-1.11.22L82,91.86a.53.53,0,0,1-.09-.66C82.1,90.82,82.52,90.84,82.86,90.58Z"
    transform="translate(-0.24 -0.52)" />
  <path
    d="M95.74,83.79a.9.9,0,0,1-.48.76c-.35.26-.49-.1-.66-.27-.86-.83-1.68-1.7-2.55-2.52-.45-.43-.19-.85,0-1.16a.63.63,0,0,1,1,0,20.1,20.1,0,0,1,2.5,2.64C95.63,83.44,95.86,83.54,95.74,83.79Z"
    transform="translate(-0.24 -0.52)" />
  <path
    d="M16.83,22c-.16.31-.07.63-.49.79s-.51,0-.7-.2c-.85-.84-1.67-1.72-2.55-2.52-.43-.4-.16-.73,0-1a.59.59,0,0,1,.93-.18c1,.93,1.85,1.91,2.76,2.89C16.84,21.78,16.82,21.92,16.83,22Z"
    transform="translate(-0.24 -0.52)" />
  <path
    d="M89,85c.56.61,1.16,1.22,1.7,1.88a3.51,3.51,0,0,0,1,1c.57.31.38.83.07,1.2s-.68.31-1,0c-.83-.85-1.67-1.69-2.51-2.53-.27-.27-.2-.51-.07-.85S88.58,85.29,89,85Z"
    transform="translate(-0.24 -0.52)" />
  <path
    d="M91.4,82c.34.06.51.35.73.57.73.75,1.43,1.53,2.17,2.27a.76.76,0,0,1,0,1.13c-.29.34-.69.28-1-.07-.81-.82-1.62-1.64-2.44-2.45a.7.7,0,0,1-.1-1C90.93,82.2,91.15,82.13,91.4,82Z"
    transform="translate(-0.24 -0.52)" />
  <path
    d="M21.14,17.57c-.14.22-.12.5-.47.62s-.57.22-.84-.05c-.84-.84-1.68-1.68-2.53-2.5a.73.73,0,0,1,.89-1.16c1,.92,1.91,1.92,2.85,2.89A.75.75,0,0,1,21.14,17.57Z"
    transform="translate(-0.24 -0.52)" />
  <path
    d="M22.65,16.27c-.17.19-.09.56-.4.65s-.6.19-.88-.1c-.86-.88-1.73-1.74-2.6-2.61-.24-.24-.41-.54-.08-.81s.71-.6,1-.28c1,.93,1.92,1.93,2.86,2.91C22.65,16.07,22.63,16.18,22.65,16.27Z"
    transform="translate(-0.24 -0.52)" />
  <path
    d="M12.44,20.19a2,2,0,0,1,.42.35c.6,1,1.65,1.54,2.36,2.44.39.51.36.88.09,1.21s-.75.21-1.1-.15c-.77-.8-1.56-1.59-2.36-2.37a.71.71,0,0,1-.09-1C11.91,20.42,12.14,20.34,12.44,20.19Z"
    transform="translate(-0.24 -0.52)" />
  <path
    d="M19.63,19c0,.31-.28.47-.49.65a.48.48,0,0,1-.73-.06c-.88-.87-1.75-1.75-2.63-2.61a.62.62,0,0,1,0-.86.72.72,0,0,1,1.05-.19,18.28,18.28,0,0,1,2.76,2.87A1.21,1.21,0,0,1,19.63,19Z"
    transform="translate(-0.24 -0.52)" />
  <path
    d="M15,17.21a10.42,10.42,0,0,1,3.17,3.17c.05.4-.27.55-.48.77s-.5.07-.7-.14l-2.52-2.54a.77.77,0,0,1-.16-.88C14.37,17.3,14.66,17.24,15,17.21Z"
    transform="translate(-0.24 -0.52)" />
  <path
    d="M48.7,50.78a1.16,1.16,0,0,1-.59.65.63.63,0,0,1-.9-.15c-.71-.74-1.45-1.45-2.17-2.18-.23-.23-.64-.4-.39-.86s.6-.3.94-.28A11.83,11.83,0,0,1,48.7,50.78Z"
    transform="translate(-0.24 -0.52)" />
  <path
    d="M54.23,62.06c-.12,0,.09,0,.17,0a14.6,14.6,0,0,1,2.18,2.4.68.68,0,0,1-.13.95c-.4.32-.71.12-1-.19-.66-.69-1.35-1.34-2-2-.23-.24-.72-.43-.54-.81S53.55,62.05,54.23,62.06Z"
    transform="translate(-0.24 -0.52)" />
  <path
    d="M12.62,86.43c.12.1.21.16.3.25l4.8,4.82c.82.82,1.66,1.63,2.48,2.46a2.22,2.22,0,0,1,.25.35c-.13-.08-.26-.14-.38-.22a24.85,24.85,0,0,1-5.14-4.51c-.73-.87-1.47-1.73-2.2-2.61a1.36,1.36,0,0,1-.22-.39S12.58,86.48,12.62,86.43Z"
    transform="translate(-0.24 -0.52)" />
  <path
    d="M86.13,12.5A6.58,6.58,0,0,1,88.34,14a29.68,29.68,0,0,1,5.3,5.83,3.62,3.62,0,0,1,.19.4,2.42,2.42,0,0,1-.36-.27q-3.56-3.54-7.1-7.1c-.11-.11-.2-.24-.3-.36Z"
    transform="translate(-0.24 -0.52)" />
  <path
    d="M47.7,47.75c1.42-.33,1.71,1,2.53,1.6.3.21,0,.64-.26.77s-.56.49-.93.11c-.66-.67-1.34-1.32-2-2-.1-.09-.19-.33-.14-.39A.57.57,0,0,1,47.7,47.75Z"
    transform="translate(-0.24 -0.52)" />
  <path
    d="M56.35,42.35c0-.26-.15-.64.13-.75s.52.13.71.3c.64.58,1.23,1.21,1.85,1.81a.47.47,0,0,1,.07.72.89.89,0,0,1-1.15.2C57.23,44,56.21,43.58,56.35,42.35Z"
    transform="translate(-0.24 -0.52)" />
  <path
    d="M57.63,63.12a.59.59,0,0,1-.38.74c-.34.14-.49-.16-.67-.34-.48-.47-.95-1-1.43-1.42a.7.7,0,0,1-.23-.93c.21-.38.62-.33.95-.3A3.52,3.52,0,0,1,57.63,63.12Z"
    transform="translate(-0.24 -0.52)" />
  <path
    d="M51.92,48.23c0,.66-.36.88-.81.84-.79-.07-1.14-.76-1.52-1.31-.13-.18.3-.6.47-.49C50.67,47.64,51.73,47.24,51.92,48.23Z"
    transform="translate(-0.24 -0.52)" />
  <path d="M58.07,61c-.3.2-.16.8-.36.68-.52-.33-1.18-.65-1.15-1.47,0-.32,0-.5.43-.49C57.89,59.7,57.67,60.54,58.07,61Z"
    transform="translate(-0.24 -0.52)" />
  <path d="M56.1,43.81a1.43,1.43,0,0,1,.9,1c.08.45-.48.62-.93.63s-.66-.31-.69-.76S55.88,44.11,56.1,43.81Z"
    transform="translate(-0.24 -0.52)" />
  <path d="M53.53,47.15c-.11.48-.32.73-.81.7s-.64-.15-.61-.52a.56.56,0,0,1,.78-.58C53.18,46.82,53.56,46.72,53.53,47.15Z"
    transform="translate(-0.24 -0.52)" />
  <path d="M55.24,46c0,.55-.34.62-.79.61-.26,0-.5,0-.48-.34,0-.57.58-.58.93-.73S55.23,45.79,55.24,46Z"
    transform="translate(-0.24 -0.52)" />
</svg>