<svg xmlns="http://www.w3.org/2000/svg" viewBox="0 0 141.14 142.32"><defs><style>.cls-1{fill:#e6d0ff;}.cls-2{fill:#a850ff;}.cls-3{fill:#948f8f;}.cls-4{fill:#e6d1ff;}.cls-5{fill:#6540cc;}</style></defs><g id="Layer_2" data-name="Layer 2"><polygon class="cls-1" points="98.7 141.9 93.6 138.96 93.6 87.39 98.7 90.33 98.7 141.9"/><polygon class="cls-2" points="97.46 142.62 92.36 139.67 92.36 88.1 97.46 91.04 97.46 142.62"/><polygon class="cls-1" points="127.22 125.59 122.12 122.64 122.12 71.07 127.22 74.02 127.22 125.59"/><polygon class="cls-2" points="125.99 126.3 120.88 123.36 120.88 71.78 125.99 74.73 125.99 126.3"/><polygon class="cls-3" points="92.03 98.14 6.81 48.94 49.11 24.52 134.33 73.72 92.03 98.14"/><polygon class="cls-4" points="92.03 93.55 6.81 44.35 49.11 19.93 134.33 69.13 92.03 93.55"/><polygon class="cls-2" points="6.81 48.94 6.81 44.34 92.03 93.55 92.03 98.14 6.81 48.94"/><polygon class="cls-5" points="134.33 69.13 92.03 93.55 92.03 98.14 97.46 95.01 97.46 142.62 98.7 141.9 98.7 94.29 125.99 78.54 125.99 126.3 127.22 125.59 127.22 77.82 134.33 73.72 134.33 69.13"/><path class="cls-5" d="M139.33,65.19a1,1,0,0,1-.53-.15L53.58,15.84A1.06,1.06,0,1,1,54.64,14l85.22,49.2a1.08,1.08,0,0,1,.39,1.46A1.06,1.06,0,0,1,139.33,65.19Z"/><path class="cls-5" d="M1.81,40.41a1.07,1.07,0,0,1-.92-.53,1.06,1.06,0,0,1,.39-1.45L43.58,14a1.06,1.06,0,0,1,1.06,1.84L2.34,40.27A1.1,1.1,0,0,1,1.81,40.41Z"/><path class="cls-5" d="M7,31.09l-1.75,1c-1.89,1.08-2.69.48-2.69-1.86V26.49a5.41,5.41,0,0,1,2.88-5l2.84-1.64c.81-.46,1.21-.2,1.21.76a2.38,2.38,0,0,1-1.22,2.17L5.51,24.35a1,1,0,0,0-.52.93v.52a1.94,1.94,0,0,1,.55-.45l1.57-.91q2.71-1.56,2.71,1.66A5.39,5.39,0,0,1,7,31.09Zm0-2.93a1.12,1.12,0,0,0,.55-1.06c0-.51-.18-.65-.55-.44l-1.49.86A1.11,1.11,0,0,0,5,28.57c0,.5.17.65.51.46Z"/><path class="cls-5" d="M18.41,20.59a5.92,5.92,0,0,1-3,5.64l-1.49.86c-1.84,1.06-3,.76-3-2.14V22.23a5.92,5.92,0,0,1,3-5.64l1.49-.86c1.84-1.06,3-.76,3,2.14Zm-3.09,2.75c.45-.26.62-.57.62-1.4V19.37c0-.83-.17-.94-.62-.68L14,19.48c-.45.26-.62.57-.62,1.4v2.57c0,.83.17.94.62.68Z"/><path class="cls-5" d="M26.9,12a4.25,4.25,0,0,0-2.11,3.51c0,1.19.7,1.93,2.09,1.13l.94-.54c.86-.5,1.26,0,1.26.72a2.61,2.61,0,0,1-1.26,2.19l-.92.53c-3,1.75-4.56.06-4.56-2.55A9.84,9.84,0,0,1,27.09,9l.73-.42c.83-.48,1.29,0,1.29.73a2.72,2.72,0,0,1-1.29,2.22Z"/><path class="cls-5" d="M33.44,11.33l-.94-.86V15a2.58,2.58,0,0,1-1.25,2.16c-.68.4-1.27.25-1.27-.71V8.79a2.83,2.83,0,0,1,1.33-2.3,1.08,1.08,0,0,1,1.26,0L34.36,8.1l1.81-3.68A3.41,3.41,0,0,1,37.42,3c.69-.39,1.34-.2,1.34.77v7.61a2.6,2.6,0,0,1-1.28,2.19c-.67.39-1.25.22-1.25-.73V8.31l-.92,1.94a2.47,2.47,0,0,1-1,1.16A.74.74,0,0,1,33.44,11.33Z"/><path class="cls-5" d="M79.89,21c0,.95-.57,1.11-1.26.72a2.62,2.62,0,0,1-1.24-2.17V15.32a1.32,1.32,0,0,1-.64-.18A2.64,2.64,0,0,1,75.58,13a1,1,0,0,1,.43-.92l1.73-.95a1,1,0,0,1,1.08,0,2.5,2.5,0,0,1,1.07,2.23Z"/><path class="cls-5" d="M81.26,23.18a.64.64,0,0,1-.32-.62v-2.9c0-2.16.74-2.66,2.56-1.61l2,1.18c.43.25.65.18.65-.19a1.11,1.11,0,0,0-.65-1l-3.13-1.81a2.39,2.39,0,0,1-1.23-2.17V14c0-.93.41-1.16,1.21-.7l3.14,1.81a5.43,5.43,0,0,1,2.87,5c0,2.15-.6,2.8-2.52,1.69l-2.15-1.24c-.4-.23-.6-.17-.6.21l0,.53,3.91,2.26a2.35,2.35,0,0,1,1.33,2.21c0,1-.44,1.21-1.34.69Z"/><path class="cls-5" d="M97,28.39c0,2.9-1.19,3.2-3,2.14l-1.49-.87a5.89,5.89,0,0,1-3-5.64V21.31c0-2.91,1.19-3.2,3-2.14L94,20a5.92,5.92,0,0,1,3,5.64Zm-3.09-.82c.45.26.62.15.62-.69V24.32c0-.83-.17-1.14-.62-1.4l-1.37-.79c-.45-.26-.62-.15-.62.68v2.57c0,.83.17,1.14.62,1.4Z"/><path class="cls-5" d="M105.5,29.63c-1.41-.81-2.11-.08-2.11,1.08a4.3,4.3,0,0,0,2.09,3.55l.94.54A2.62,2.62,0,0,1,107.68,37c0,.78-.42,1.23-1.26.74l-.92-.54a9.44,9.44,0,0,1-4.56-7.8c0-2.64,1.58-4.41,4.75-2.58l.73.42a2.74,2.74,0,0,1,1.29,2.22c0,.76-.46,1.21-1.29.73Z"/><path class="cls-5" d="M112,36.48l-.94-1.94V39c0,.94-.58,1.11-1.25.73a2.59,2.59,0,0,1-1.27-2.18V30c0-1,.64-1.17,1.33-.77a3.56,3.56,0,0,1,1.26,1.46L113,34.31l1.81-1.59a1,1,0,0,1,1.25,0A2.85,2.85,0,0,1,117.36,35v7.62c0,1-.59,1.1-1.28.71a2.59,2.59,0,0,1-1.25-2.17V36.69l-.92.87a.7.7,0,0,1-1,.06A2.51,2.51,0,0,1,112,36.48Z"/></g></svg>