<svg xmlns="http://www.w3.org/2000/svg" viewBox="0 0 233.81 193.76"><defs><style>.cls-1{fill:#e6d0ff;}.cls-2{fill:#6540cc;}.cls-3{fill:#a850ff;}.cls-4{fill:#e6d1ff;}</style></defs><g id="Layer_2" data-name="Layer 2"><polygon class="cls-1" points="21.7 96.8 16.59 93.85 16.59 42.28 21.7 45.23 21.7 96.8"/><polygon class="cls-2" points="20.46 45.94 21.7 45.23 21.7 96.8 20.46 97.51 20.46 45.94"/><polygon class="cls-1" points="50.22 80.48 45.12 77.53 45.12 25.96 50.22 28.91 50.22 80.48"/><polygon class="cls-2" points="48.98 29.62 50.22 28.91 50.22 80.48 48.98 81.19 48.98 29.62"/><polygon class="cls-1" points="185.57 192.55 180.47 189.6 180.47 138.03 185.57 140.98 185.57 192.55"/><polygon class="cls-3" points="184.34 193.26 179.24 190.31 179.24 138.74 184.34 141.69 184.34 193.26"/><polygon class="cls-1" points="214.1 176.23 209 173.29 209 121.72 214.1 124.66 214.1 176.23"/><polygon class="cls-3" points="212.86 176.94 207.76 174 207.76 122.43 212.86 125.37 212.86 176.94"/><polygon class="cls-2" points="221.21 119.77 178.91 144.19 178.91 148.78 184.34 145.65 184.34 193.26 185.57 192.55 185.57 144.94 212.86 129.18 212.86 176.94 214.1 176.23 214.1 128.47 221.21 124.36 221.21 119.77"/><polygon class="cls-3" points="178.91 144.19 48.98 69.18 48.98 29.62 43.88 26.68 43.88 66.23 20.46 52.71 20.46 45.94 15.36 42.99 15.36 49.76 8.47 45.79 8.47 50.38 15.36 54.36 15.36 94.56 20.46 97.51 20.46 57.31 43.88 70.83 43.88 78.25 48.98 81.19 48.98 73.77 178.91 148.78 178.91 144.19"/><polygon class="cls-4" points="8.47 45.79 50.77 21.37 221.21 119.77 178.91 144.19 8.47 45.79"/><path class="cls-2" d="M4,41.85a1.06,1.06,0,0,1-.54-2L45.24,15.45a1.06,1.06,0,0,1,1.07,1.84L4.5,41.71A1.06,1.06,0,0,1,4,41.85Z"/><path class="cls-2" d="M228.21,113.83a1,1,0,0,1-.54-.14L57.24,15.29a1.06,1.06,0,1,1,1.06-1.84l170.44,98.4a1.06,1.06,0,0,1,.39,1.45A1.07,1.07,0,0,1,228.21,113.83Z"/><path class="cls-2" d="M7.21,31.88l-1.75,1C3.57,34,2.76,33.38,2.76,31V27.28a5.41,5.41,0,0,1,2.89-5l2.84-1.64c.8-.46,1.2-.2,1.2.76a2.38,2.38,0,0,1-1.22,2.17l-2.7,1.56a1,1,0,0,0-.52.93v.52a1.91,1.91,0,0,1,.54-.45l1.58-.91q2.7-1.56,2.7,1.66A5.4,5.4,0,0,1,7.21,31.88Zm0-2.93a1.14,1.14,0,0,0,.55-1.06c0-.5-.19-.65-.55-.44l-1.5.86a1.13,1.13,0,0,0-.5,1.05c0,.5.17.65.5.46Z"/><path class="cls-2" d="M18.67,21.38a5.93,5.93,0,0,1-3,5.64l-1.5.86c-1.83,1.06-3,.76-3-2.14V23a5.93,5.93,0,0,1,3-5.64l1.5-.86c1.83-1.06,3-.76,3,2.14Zm-3.1,2.75c.46-.26.63-.57.63-1.4V20.16c0-.83-.17-.94-.63-.68l-1.36.79c-.46.26-.62.57-.62,1.4v2.57c0,.83.16.94.62.68Z"/><path class="cls-2" d="M27.15,12.83a4.28,4.28,0,0,0-2.1,3.51c0,1.19.7,1.93,2.09,1.13l.94-.54c.85-.5,1.26,0,1.26.72a2.61,2.61,0,0,1-1.26,2.19l-.93.53c-3,1.75-4.55.06-4.55-2.55a9.84,9.84,0,0,1,4.75-8.06l.73-.42c.83-.48,1.28,0,1.28.73a2.7,2.7,0,0,1-1.28,2.22Z"/><path class="cls-2" d="M33.7,12.12l-.94-.86v4.49a2.61,2.61,0,0,1-1.25,2.16c-.69.4-1.27.25-1.27-.71V9.58a2.83,2.83,0,0,1,1.32-2.3,1.06,1.06,0,0,1,1.26,0l1.8,1.6,1.81-3.68a3.46,3.46,0,0,1,1.24-1.46c.69-.39,1.34-.2,1.34.77v7.61a2.59,2.59,0,0,1-1.27,2.19c-.68.39-1.25.22-1.25-.73V9.1L35.57,11a2.47,2.47,0,0,1-1,1.16A.74.74,0,0,1,33.7,12.12Z"/><path class="cls-2" d="M119,41.78a.66.66,0,0,1-.32-.62V38.25c0-2.16.74-2.66,2.56-1.61l2,1.18c.43.25.65.18.65-.19a1.11,1.11,0,0,0-.65-1l-3.13-1.8a2.4,2.4,0,0,1-1.23-2.17v-.06c0-.94.41-1.17,1.21-.7l3.14,1.8a5.44,5.44,0,0,1,2.87,5c0,2.15-.6,2.8-2.52,1.69l-2.15-1.24q-.6-.34-.6.21l0,.54,3.91,2.26a2.33,2.33,0,0,1,1.33,2.21c0,1-.44,1.2-1.34.69Z"/><path class="cls-2" d="M134.06,49c0,1-.58,1.11-1.27.71a2.6,2.6,0,0,1-1.26-2.17V45.21l-3.3-1.9a2.39,2.39,0,0,1-1.27-2.2V37.32c0-1,.59-1.08,1.27-.69a2.54,2.54,0,0,1,1.26,2.16V41.4l2,1.18V40c0-1,.59-1.1,1.26-.71a2.56,2.56,0,0,1,1.27,2.16Z"/><path class="cls-2" d="M142.74,51.58c0,2.91-1.19,3.2-3,2.14l-1.49-.86a5.92,5.92,0,0,1-3-5.64V44.51c0-2.91,1.2-3.2,3-2.14l1.49.86a5.9,5.9,0,0,1,3,5.64Zm-3.09-.81c.45.26.62.15.62-.69V47.52c0-.84-.17-1.14-.62-1.41l-1.37-.78c-.45-.27-.62-.16-.62.68v2.56c0,.84.17,1.14.62,1.41Z"/><path class="cls-2" d="M151.23,52.83c-1.41-.81-2.11-.09-2.11,1.08a4.31,4.31,0,0,0,2.09,3.55l.94.54a2.61,2.61,0,0,1,1.26,2.17c0,.78-.41,1.22-1.26.73l-.92-.53a9.45,9.45,0,0,1-4.55-7.8c0-2.64,1.57-4.41,4.74-2.58l.73.42a2.73,2.73,0,0,1,1.29,2.22c0,.76-.46,1.21-1.29.73Z"/><path class="cls-2" d="M157.77,59.68l-.94-1.94v4.48c0,.94-.58,1.11-1.25.73a2.61,2.61,0,0,1-1.27-2.18V53.15c0-1,.64-1.17,1.33-.77a3.5,3.5,0,0,1,1.26,1.46l1.79,3.67,1.81-1.59a1,1,0,0,1,1.25,0,2.84,2.84,0,0,1,1.34,2.31v7.61c0,1-.59,1.11-1.28.71a2.56,2.56,0,0,1-1.24-2.16V59.89l-.93.87a.71.71,0,0,1-.95.06A2.58,2.58,0,0,1,157.77,59.68Z"/><path class="cls-2" d="M92.19,96.12a1.07,1.07,0,0,1-.92-.53,1.06,1.06,0,0,1,.39-1.45l2.46-1.42a1.06,1.06,0,1,1,1.06,1.84L92.72,96A1.1,1.1,0,0,1,92.19,96.12Z"/><path class="cls-2" d="M100.19,91.5a1.06,1.06,0,0,1-.53-2l5.54-3.2a1.06,1.06,0,1,1,1.06,1.84l-5.54,3.2A1,1,0,0,1,100.19,91.5Zm11.08-6.4a1.06,1.06,0,0,1-.53-2l5.54-3.2a1.06,1.06,0,0,1,1.06,1.84L111.8,85A1,1,0,0,1,111.27,85.1Zm11.08-6.39a1.07,1.07,0,0,1-.53-2l5.54-3.2a1.06,1.06,0,0,1,1.06,1.84l-5.54,3.2A1,1,0,0,1,122.35,78.71Z"/><path class="cls-2" d="M133.44,72.31a1.07,1.07,0,0,1-.54-2l2.46-1.41a1.05,1.05,0,0,1,1.45.39,1.07,1.07,0,0,1-.39,1.45L134,72.16A1,1,0,0,1,133.44,72.31Z"/></g></svg>