<svg xmlns="http://www.w3.org/2000/svg" viewBox="0 0 144.6 136.12"><defs><style>.cls-1{fill:#38bf56;}.cls-2{fill:#6540cc;}.cls-3{fill:#a850ff;}.cls-4{fill:#e6d1ff;}</style></defs><g id="Layer_2" data-name="Layer 2"><polygon class="cls-1" points="45.04 111.56 29.85 47.16 23.92 43.74 8.72 90.59 15.16 94.48 26.88 60.08 38.6 108.02 45.04 111.56"/><polygon class="cls-2" points="13.54 95.44 15.16 94.48 25.8 63.25 25.11 61.49 13.54 95.44"/><polygon class="cls-2" points="43.42 112.51 45.04 111.56 29.85 47.16 28.23 48.11 43.42 112.51"/><polygon class="cls-1" points="85.77 135.35 70.58 70.95 64.65 67.53 49.45 114.38 55.89 118.28 67.61 83.87 79.33 131.81 85.77 135.35"/><polygon class="cls-2" points="54.27 119.23 55.89 118.28 66.53 87.04 65.83 85.28 54.27 119.23"/><polygon class="cls-2" points="84.15 136.3 85.77 135.35 70.58 70.95 68.95 71.91 84.15 136.3"/><polygon class="cls-1" points="129.28 112.14 114.09 47.75 108.16 44.32 92.96 91.17 99.41 95.07 111.12 60.66 122.84 108.6 129.28 112.14"/><polygon class="cls-3" points="127.66 113.09 112.47 48.7 106.54 45.27 91.34 92.13 97.78 96.02 109.5 61.62 121.22 109.55 127.66 113.09"/><polygon class="cls-2" points="79.61 93.68 8.6 52.68 65 20.11 136.01 61.11 79.61 93.68"/><polygon class="cls-3" points="77.71 132.76 84.15 136.3 73.22 89.99 79.61 93.68 79.61 89.08 71.97 84.67 68.95 71.91 63.02 68.48 60.01 77.77 31.31 61.2 28.23 48.11 22.3 44.69 19.21 54.21 8.6 48.09 8.6 52.68 17.95 58.08 7.1 91.54 13.54 95.44 24.9 62.09 25.62 62.51 36.98 108.97 43.42 112.51 32.57 66.52 58.76 81.64 47.83 115.33 54.27 119.23 65.71 85.65 66.27 85.98 77.71 132.76"/><polygon class="cls-2" points="136.01 56.52 118.54 66.61 114.09 47.75 112.47 48.7 116.91 67.54 106.79 73.39 110.04 63.84 109.35 62.07 105.17 74.32 79.61 89.08 79.61 93.68 103.23 80.04 97.78 96.02 99.41 95.07 104.84 79.11 117.87 71.59 127.66 113.09 129.28 112.14 119.49 70.65 136.01 61.11 136.01 56.52"/><polygon class="cls-4" points="79.61 89.08 8.6 48.08 65 15.52 136.01 56.52 79.61 89.08"/><path class="cls-2" d="M3.6,44.14a1.06,1.06,0,0,1-.54-2L59.46,9.6a1.08,1.08,0,0,1,1.46.39,1.06,1.06,0,0,1-.39,1.45L4.13,44A1,1,0,0,1,3.6,44.14Z"/><path class="cls-2" d="M141,52.58a1,1,0,0,1-.53-.14l-71-41A1.06,1.06,0,1,1,70.53,9.6l71,41a1.06,1.06,0,0,1,.39,1.45A1.07,1.07,0,0,1,141,52.58Z"/><path class="cls-2" d="M13.18,32.55c-1.64,1-2.28.08-2.28-1.4a4.51,4.51,0,0,1,1.52-3.51c-.93.3-1.36-.45-1.36-1.65A4.61,4.61,0,0,1,13,22.16l3.26-1.88c1.27-.74,1.94.22,1.94,1.59a4.15,4.15,0,0,1-1.35,3.21c.93-.42,1.5.4,1.5,1.77a4.51,4.51,0,0,1-2.26,4Zm.65-7.95a1.1,1.1,0,0,0-.51.92c0,.38.18.63.51.44l1.6-.92a1.25,1.25,0,0,0,.5-1c0-.31-.14-.54-.5-.33Zm0,3.48a1.06,1.06,0,0,0-.51.89c0,.28.16.5.51.3l1.6-.92a1.06,1.06,0,0,0,.5-.89c0-.3-.14-.52-.5-.31Z"/><path class="cls-2" d="M27,20.7a5.91,5.91,0,0,1-3,5.63l-1.5.87c-1.83,1.06-3,.76-3-2.14V22.34a5.93,5.93,0,0,1,3-5.64l1.5-.86c1.83-1.06,3-.77,3,2.14Zm-3.1,2.75c.46-.26.63-.57.63-1.4V19.48c0-.83-.17-.94-.63-.68l-1.36.79c-.46.26-.63.57-.63,1.4v2.57c0,.83.17.94.63.68Z"/><path class="cls-2" d="M35.46,12.15a4.28,4.28,0,0,0-2.11,3.51c0,1.19.71,1.93,2.1,1.13l.93-.54c.86-.5,1.26,0,1.26.72a2.59,2.59,0,0,1-1.26,2.19l-.92.53c-3,1.75-4.55.06-4.55-2.55a9.82,9.82,0,0,1,4.74-8.06l.73-.42c.84-.48,1.29,0,1.29.73a2.69,2.69,0,0,1-1.29,2.22Z"/><path class="cls-2" d="M42,11.44l-.93-.86v4.48a2.61,2.61,0,0,1-1.25,2.17c-.69.4-1.28.24-1.28-.71V8.9a2.83,2.83,0,0,1,1.33-2.3,1.06,1.06,0,0,1,1.26,0l1.8,1.61,1.8-3.69A3.58,3.58,0,0,1,46,3.07c.69-.4,1.34-.2,1.34.77v7.61a2.56,2.56,0,0,1-1.27,2.18c-.68.4-1.25.23-1.25-.72V8.42l-.92,1.94a2.47,2.47,0,0,1-1,1.16A.75.75,0,0,1,42,11.44Z"/><path class="cls-2" d="M91.06,15.72c0,1-.57,1.12-1.26.72a2.6,2.6,0,0,1-1.25-2.17V10a1.24,1.24,0,0,1-.64-.19,2.64,2.64,0,0,1-1.17-2.11,1,1,0,0,1,.43-.91l1.73-1A1,1,0,0,1,90,5.9a2.5,2.5,0,0,1,1.08,2.23Z"/><path class="cls-2" d="M99.73,18.22c0,2.91-1.19,3.2-3,2.15l-1.49-.87a5.9,5.9,0,0,1-3-5.64V11.15c0-2.91,1.19-3.2,3-2.14l1.49.86a5.9,5.9,0,0,1,3,5.64Zm-3.09-.81c.45.26.62.15.62-.69V14.16c0-.84-.17-1.14-.62-1.4L95.27,12c-.45-.27-.62-.16-.62.68v2.56c0,.84.17,1.15.62,1.41Z"/><path class="cls-2" d="M108.44,23.25c0,2.91-1.2,3.2-3,2.14l-1.5-.86a5.93,5.93,0,0,1-3-5.64V16.17c0-2.9,1.2-3.2,3-2.14l1.5.86a5.94,5.94,0,0,1,3,5.65Zm-3.1-.82c.46.26.62.15.62-.68V19.18c0-.83-.16-1.14-.62-1.4L104,17c-.46-.26-.63-.15-.63.68v2.57c0,.83.17,1.14.63,1.4Z"/><path class="cls-2" d="M116.92,24.49c-1.41-.81-2.11-.08-2.11,1.08a4.3,4.3,0,0,0,2.09,3.55l.94.54a2.62,2.62,0,0,1,1.26,2.18c0,.77-.41,1.22-1.26.73l-.92-.53a9.46,9.46,0,0,1-4.55-7.8c0-2.64,1.57-4.42,4.74-2.59l.73.42a2.74,2.74,0,0,1,1.29,2.22c0,.76-.46,1.22-1.29.74Z"/><path class="cls-2" d="M123.46,31.34l-.94-1.94v4.49c0,.94-.58,1.11-1.24.72A2.59,2.59,0,0,1,120,32.43V24.81c0-1,.64-1.16,1.33-.77a3.55,3.55,0,0,1,1.26,1.46l1.79,3.68,1.81-1.6a1,1,0,0,1,1.25,0,2.85,2.85,0,0,1,1.34,2.31V37.5c0,1-.59,1.11-1.27.71A2.55,2.55,0,0,1,126.26,36V31.55l-.93.87a.71.71,0,0,1-1,.07A2.67,2.67,0,0,1,123.46,31.34Z"/></g></svg>